<svg width="140.000000" height="28.354492" viewBox="0 0 140 28.3545" fill="none" xmlns="http://www.w3.org/2000/svg" xmlns:xlink="http://www.w3.org/1999/xlink">
	<desc>
			Created with Pixso.
	</desc>
	<defs>
		<clipPath id="clip13_251">
			<rect width="140.000000" height="28.354431" fill="white" fill-opacity="0"/>
		</clipPath>
	</defs>
	<rect width="140.000000" height="28.354431" fill="#FFFFFF" fill-opacity="0"/>
	<g clip-path="url(#clip13_251)">
		<path d="M139.752 21.6558L139.752 25.1201L136.846 25.1201C133.744 25.0229 132.088 23.3481 132.088 20.2026L132.088 12.29L130.059 12.29L130.059 9.25049L132.088 9.25049L132.088 5.84814L136.377 5.84814L136.377 9.21533L139.654 9.21533L139.654 12.2456L136.377 12.2456L136.377 19.7773C136.377 20.7964 136.58 21.6113 138.148 21.6113L139.752 21.6558Z" fill="#FFFFFF" fill-opacity="1.000000" fill-rule="nonzero"/>
		<path d="M112.965 17.2163L112.965 16.9858C112.918 15.9668 113.074 14.9487 113.422 13.9897C113.77 13.0308 114.303 12.1494 114.992 11.3975C115.682 10.645 116.512 10.0356 117.438 9.60498C118.361 9.17432 119.361 8.93066 120.381 8.88721C120.586 8.88721 120.799 8.88721 121.002 8.88721C125.051 8.88721 128.604 11.2441 128.604 16.8618L128.604 18.0581L117.352 18.0581C117.467 20.6455 118.867 22.1074 121.223 22.1074C123.252 22.1074 124.201 21.2212 124.475 19.9277L128.525 19.9277C128.029 23.3037 125.334 25.1821 121.072 25.1821C116.395 25.1465 112.965 22.187 112.965 17.2163ZM124.387 15.3467C124.236 12.9897 123.049 11.8555 120.984 11.8555C118.92 11.8555 117.732 13.1313 117.439 15.3467L124.387 15.3467Z" fill="#FFFFFF" fill-opacity="1.000000" fill-rule="nonzero"/>
		<path d="M95.457 17.2163L95.457 16.9858C95.4102 15.9683 95.5664 14.9512 95.9121 13.9937C96.2598 13.0356 96.791 12.1553 97.4785 11.4033C98.166 10.6514 98.9941 10.042 99.916 9.60986C100.84 9.17822 101.838 8.93262 102.855 8.88721C103.061 8.88721 103.271 8.88721 103.477 8.88721C107.525 8.88721 111.088 11.2441 111.088 16.8618L111.088 18.0581L99.8438 18.0581C99.959 20.6455 101.359 22.1074 103.715 22.1074C105.744 22.1074 106.693 21.2212 106.967 19.9277L111.018 19.9277C110.512 23.3037 107.818 25.1821 103.557 25.1821C98.8867 25.1465 95.457 22.187 95.457 17.2163ZM106.879 15.3467C106.729 12.9897 105.541 11.8555 103.477 11.8555C101.412 11.8555 100.26 13.167 99.9316 15.3379L106.879 15.3467Z" fill="#FFFFFF" fill-opacity="1.000000" fill-rule="nonzero"/>
		<path d="M70.8867 9.21533L75.4238 9.21533L78.1973 19.7241L81.2363 9.21533L84.7812 9.21533L87.5273 19.7241L90.4512 9.21533L94.6074 9.21533L89.6797 24.8281L85.4277 24.8281L82.7695 15.0278L79.9238 24.8281L75.6191 24.8281L70.8867 9.21533Z" fill="#FFFFFF" fill-opacity="1.000000" fill-rule="nonzero"/>
		<path d="M56.4688 19.9189L60.5176 19.9189C60.7051 21.3281 61.4043 22.1343 63.2656 22.1343C64.9316 22.1343 65.7012 21.5054 65.7012 20.4331C65.7012 19.3608 64.8164 18.9092 62.5469 18.5898C58.3906 17.9609 56.7871 16.7646 56.7871 13.7168C56.7871 10.4648 59.7656 8.85205 62.9902 8.85205C66.4551 8.85205 69.0684 10.1104 69.4414 13.6987L65.4453 13.6987C65.4199 13.4214 65.3398 13.1519 65.209 12.9058C65.0781 12.6592 64.9004 12.4414 64.6855 12.2642C64.4707 12.0869 64.2227 11.9541 63.9551 11.8735C63.6895 11.793 63.4102 11.7656 63.1328 11.7939L63 11.7939C61.5996 11.7939 60.7832 12.4497 60.7832 13.4062C60.7832 14.3633 61.5371 14.7798 63.8223 15.1079C67.7051 15.6924 69.875 16.6763 69.875 20.0166C69.875 23.3569 67.4199 25.147 63.3086 25.147C59.1973 25.147 56.584 23.2949 56.4688 19.9189Z" fill="#FFFFFF" fill-opacity="1.000000" fill-rule="nonzero"/>
		<path d="M39.2617 9.21533L43.5508 9.21533L43.5508 11.6875C44.0332 10.7798 44.7676 10.0303 45.6641 9.52783C46.5605 9.0249 47.584 8.79053 48.6094 8.85205C51.6484 8.85205 53.8555 10.7036 53.8555 14.9302L53.8555 24.8633L49.6191 24.8633L49.6191 15.5508C49.6191 13.4331 48.7949 12.4229 46.8828 12.4229C46.4766 12.3877 46.0703 12.4326 45.6836 12.5552C45.2949 12.6777 44.9375 12.876 44.627 13.1377C44.3164 13.3994 44.0605 13.7202 43.875 14.0811C43.6875 14.4419 43.5742 14.8359 43.541 15.2402C43.5195 15.4287 43.5195 15.6191 43.541 15.8076L43.541 24.8276L39.2617 24.8276L39.2617 9.21533Z" fill="#FFFFFF" fill-opacity="1.000000" fill-rule="nonzero"/>
		<path d="M30.9863 5.29004C30.9707 4.8623 31.082 4.43994 31.3066 4.07568C31.5312 3.71143 31.8594 3.42236 32.248 3.24463C32.6367 3.06689 33.0703 3.00879 33.4941 3.07715C33.916 3.146 34.3086 3.33838 34.6211 3.63037C34.9336 3.92188 35.1523 4.30029 35.252 4.7168C35.3496 5.1333 35.3203 5.56934 35.1719 5.97021C35.0215 6.37061 34.7559 6.71777 34.4082 6.96729C34.0605 7.2168 33.6465 7.35791 33.2188 7.37207L33.1387 7.37207C32.873 7.38916 32.6074 7.35303 32.3555 7.26709C32.1035 7.18066 31.873 7.04541 31.6738 6.86914C31.4746 6.69336 31.3105 6.47949 31.1953 6.24023C31.0781 6.00098 31.0098 5.74121 30.9941 5.47607C30.9863 5.41406 30.9844 5.35205 30.9863 5.29004ZM30.9863 9.21533L35.3184 9.21533L35.3184 24.8276L31.0039 24.8276L30.9863 9.21533Z" fill="#FFFFFF" fill-opacity="1.000000" fill-rule="nonzero"/>
		<path d="M14.6562 3.49121L28.3555 3.49121L28.3555 7.2749L19.4941 7.2749L19.4941 12.9189L26.5117 12.9189L26.5117 16.561L19.4863 16.561L19.4863 24.8281L14.6562 24.8281L14.6562 3.49121Z" fill="#FFFFFF" fill-opacity="1.000000" fill-rule="nonzero"/>
		<path d="M6.38867 10.4736C6.38867 11.8115 6.38867 13.4419 4.54492 14.1064C6.43359 14.7529 6.38867 16.1265 6.38867 17.562L6.38867 22.8784C6.38867 23.8887 6.79688 24.5 7.52344 24.6504C7.68164 24.7046 7.85156 24.7285 8.01953 24.7217L9.79102 24.7217L9.79102 28.2656L6.86719 28.2656C3.74805 28.2656 2.0293 26.4937 2.0293 23.2065L2.0293 16.915C2.00781 16.5923 1.86523 16.2891 1.63086 16.0664C1.39453 15.8433 1.08594 15.7158 0.761719 15.71L0 15.71L0 12.6001L0.761719 12.6001C1.0918 12.5957 1.4082 12.4644 1.64453 12.2334C1.87891 12.0024 2.01758 11.6895 2.0293 11.3594L2.0293 4.97998C2.0293 1.74561 3.71289 0 6.86719 0L9.81836 0L9.81836 3.49121L8.04492 3.49121C7.87695 3.4917 7.70898 3.51855 7.54883 3.5708C6.82227 3.75684 6.41602 4.35938 6.41602 5.34326L6.38867 10.4736Z" fill="#FFFFFF" fill-opacity="1.000000" fill-rule="nonzero"/>
	</g>
</svg>
