<svg width="16.000000" height="16.000000" viewBox="0 0 16 16" fill="none" xmlns="http://www.w3.org/2000/svg" xmlns:xlink="http://www.w3.org/1999/xlink">
	<desc>
			Created with Pixso.
	</desc>
	<defs/>
	<path id="Vector" d="M14.8164 0L1.18164 0C0.527344 0 0 0.515625 0 1.15332L0 14.8438C0 15.4814 0.527344 16 1.18164 16L14.8164 16C15.4688 16 16 15.4814 16 14.8467L16 1.15332C16 0.515625 15.4688 0 14.8164 0ZM4.74609 13.6348L2.37109 13.6348L2.37109 5.99707L4.74609 5.99707L4.74609 13.6348ZM3.55859 4.95605C2.79688 4.95605 2.18164 4.34082 2.18164 3.58105C2.18164 2.82227 2.79688 2.20605 3.55859 2.20605C4.31836 2.20605 4.93359 2.82227 4.93359 3.58105C4.93359 4.33789 4.31836 4.95605 3.55859 4.95605ZM13.6348 13.6348L11.2617 13.6348L11.2617 9.92188C11.2617 9.03711 11.2461 7.89648 10.0273 7.89648C8.79297 7.89648 8.60547 8.8623 8.60547 9.85938L8.60547 13.6348L6.23828 13.6348L6.23828 5.99707L8.51172 5.99707L8.51172 7.04102L8.54297 7.04102C8.85938 6.44043 9.63477 5.80664 10.7871 5.80664C13.1914 5.80664 13.6348 7.3877 13.6348 9.44336L13.6348 13.6348Z" fill="#6D6E76" fill-opacity="1.000000" fill-rule="nonzero"/>
</svg>
