<svg width="16.000000" height="16.000000" viewBox="0 0 16 16" fill="none" xmlns="http://www.w3.org/2000/svg" xmlns:xlink="http://www.w3.org/1999/xlink">
	<desc>
			Created with Pixso.
	</desc>
	<defs>
		<clipPath id="clip13_215">
			<rect id="Twitter / Negative" width="16.000000" height="16.000000" fill="white" fill-opacity="0"/>
		</clipPath>
	</defs>
	<rect id="Twitter / Negative" width="16.000000" height="16.000000" fill="#FFFFFF" fill-opacity="0"/>
	<g clip-path="url(#clip13_215)">
		<path id="Vector" d="M5.0332 14.5C11.0703 14.5 14.373 9.49805 14.373 5.16211C14.373 5.02148 14.3691 4.87695 14.3633 4.73633C15.0059 4.27246 15.5605 3.69629 16 3.03711C15.4023 3.30371 14.7656 3.47754 14.1152 3.55273C14.8008 3.14258 15.3145 2.49707 15.5586 1.7373C14.9141 2.11914 14.2109 2.38867 13.4766 2.53418C12.9805 2.00781 12.3262 1.66016 11.6133 1.54297C10.9004 1.42676 10.168 1.54785 9.53125 1.88867C8.89453 2.22949 8.38867 2.77051 8.08984 3.42773C7.79102 4.08594 7.7168 4.82324 7.87891 5.52734C6.57422 5.46191 5.29883 5.12305 4.13281 4.53223C2.96875 3.94238 1.93945 3.11328 1.11523 2.10059C0.695312 2.82227 0.568359 3.67773 0.755859 4.49121C0.945312 5.30469 1.4375 6.0166 2.13086 6.48047C1.60938 6.46387 1.09961 6.32324 0.644531 6.07129L0.644531 6.11133C0.642578 6.87012 0.90625 7.60449 1.38477 8.19141C1.86523 8.77832 2.53516 9.18066 3.27734 9.33008C2.79492 9.46289 2.28711 9.48145 1.79688 9.38672C2.00586 10.0391 2.41406 10.6094 2.96289 11.0176C3.51367 11.4268 4.17578 11.6543 4.86133 11.668C3.69922 12.5811 2.26367 13.0762 0.785156 13.0742C0.521484 13.0742 0.259766 13.0576 0 13.0264C1.50195 13.9893 3.24805 14.501 5.0332 14.5Z" fill="#6D6E76" fill-opacity="1.000000" fill-rule="nonzero"/>
	</g>
</svg>
