<svg width="48.000000" height="48.000000" viewBox="0 0 48 48" fill="none" xmlns="http://www.w3.org/2000/svg" xmlns:xlink="http://www.w3.org/1999/xlink">
	<desc>
			Created with Pixso.
	</desc>
	<defs>
		<clipPath id="clip533_2329">
			<rect id="Icon" width="48.000000" height="48.000000" fill="white" fill-opacity="0"/>
		</clipPath>
	</defs>
	<rect id="Icon" width="48.000000" height="48.000000" fill="#FFFFFF" fill-opacity="0"/>
	<g clip-path="url(#clip533_2329)">
		<path id="Vector" d="M25.0312 13.9141L14.0391 12.2446C13.5293 12.165 13.0098 12.3047 12.6191 12.6343C12.2305 12.9751 12 13.4639 12 13.9741L12 35.0444C12 35.5952 12.4492 36.0449 13 36.0449L16.252 36.0449L16.252 30.7949C16.252 29.8247 17.0312 29.0444 18.002 29.0444L20.502 29.0444C21.4727 29.0444 22.252 29.8247 22.252 30.7949L22.252 36.0449L26.502 36.0449L26.502 15.645C26.5 14.7842 25.8789 14.0552 25.0312 13.9141ZM17.5 26.7944L16 26.7944C15.5859 26.7944 15.25 26.4585 15.25 26.0444C15.25 25.6304 15.5859 25.2944 16 25.2944L17.5 25.2944C17.9141 25.2944 18.25 25.6304 18.25 26.0444C18.25 26.4585 17.9141 26.7944 17.5 26.7944ZM17.5 23.7944L16 23.7944C15.5859 23.7944 15.25 23.4585 15.25 23.0444C15.25 22.6304 15.5859 22.2944 16 22.2944L17.5 22.2944C17.9141 22.2944 18.25 22.6304 18.25 23.0444C18.25 23.4585 17.9141 23.7944 17.5 23.7944ZM17.5 20.7944L16 20.7944C15.5859 20.7944 15.25 20.4585 15.25 20.0444C15.25 19.6304 15.5859 19.2944 16 19.2944L17.5 19.2944C17.9141 19.2944 18.25 19.6304 18.25 20.0444C18.25 20.4585 17.9141 20.7944 17.5 20.7944ZM17.5 17.7944L16 17.7944C15.5859 17.7944 15.25 17.4585 15.25 17.0444C15.25 16.6304 15.5859 16.2944 16 16.2944L17.5 16.2944C17.9141 16.2944 18.25 16.6304 18.25 17.0444C18.25 17.4585 17.9141 17.7944 17.5 17.7944ZM22.5 26.7944L21 26.7944C20.5859 26.7944 20.25 26.4585 20.25 26.0444C20.25 25.6304 20.5859 25.2944 21 25.2944L22.5 25.2944C22.9141 25.2944 23.25 25.6304 23.25 26.0444C23.25 26.4585 22.9141 26.7944 22.5 26.7944ZM22.5 23.7944L21 23.7944C20.5859 23.7944 20.25 23.4585 20.25 23.0444C20.25 22.6304 20.5859 22.2944 21 22.2944L22.5 22.2944C22.9141 22.2944 23.25 22.6304 23.25 23.0444C23.25 23.4585 22.9141 23.7944 22.5 23.7944ZM22.5 20.7944L21 20.7944C20.5859 20.7944 20.25 20.4585 20.25 20.0444C20.25 19.6304 20.5859 19.2944 21 19.2944L22.5 19.2944C22.9141 19.2944 23.25 19.6304 23.25 20.0444C23.25 20.4585 22.9141 20.7944 22.5 20.7944ZM22.5 17.7944L21 17.7944C20.5859 17.7944 20.25 17.4585 20.25 17.0444C20.25 16.6304 20.5859 16.2944 21 16.2944L22.5 16.2944C22.9141 16.2944 23.25 16.6304 23.25 17.0444C23.25 17.4585 22.9141 17.7944 22.5 17.7944Z" fill="#232536" fill-opacity="1.000000" fill-rule="nonzero"/>
		<path id="Vector" d="M34.5391 22.5269L27 21L27 36L34.1465 36C35.168 36 36 35.1968 36 34.2075L36 24.2778C36 23.4316 35.4043 22.7109 34.5391 22.5269ZM32.0293 32.9282L30.4414 32.9282C30.0039 32.9282 29.6484 32.584 29.6484 32.1602C29.6484 31.7363 30.0039 31.3921 30.4414 31.3921L32.0293 31.3921C32.4688 31.3921 32.8242 31.7363 32.8242 32.1602C32.8242 32.584 32.4688 32.9282 32.0293 32.9282ZM32.0293 29.8564L30.4414 29.8564C30.0039 29.8564 29.6484 29.5122 29.6484 29.0884C29.6484 28.6646 30.0039 28.3203 30.4414 28.3203L32.0293 28.3203C32.4688 28.3203 32.8242 28.6646 32.8242 29.0884C32.8242 29.5122 32.4688 29.8564 32.0293 29.8564ZM32.0293 26.7842L30.4414 26.7842C30.0039 26.7842 29.6484 26.4404 29.6484 26.0166C29.6484 25.5923 30.0039 25.2485 30.4414 25.2485L32.0293 25.2485C32.4688 25.2485 32.8242 25.5923 32.8242 26.0166C32.8242 26.4404 32.4688 26.7842 32.0293 26.7842Z" fill="#FFD050" fill-opacity="1.000000" fill-rule="nonzero"/>
	</g>
</svg>
