<svg width="48.000000" height="48.000000" viewBox="0 0 48 48" fill="none" xmlns="http://www.w3.org/2000/svg" xmlns:xlink="http://www.w3.org/1999/xlink">
	<desc>
			Created with Pixso.
	</desc>
	<defs>
		<clipPath id="clip533_2312">
			<rect id="economy (1)" width="22.956522" height="24.000000" transform="translate(13.000000 12.000000)" fill="white" fill-opacity="0"/>
		</clipPath>
		<clipPath id="clip533_2310">
			<rect id="icon" width="48.000000" height="48.000000" fill="white" fill-opacity="0"/>
		</clipPath>
	</defs>
	<rect id="icon" width="48.000000" height="48.000000" fill="#FFFFFF" fill-opacity="0"/>
	<g clip-path="url(#clip533_2310)">
		<rect id="economy (1)" width="22.956522" height="24.000000" transform="translate(13.000000 12.000000)" fill="#FFFFFF" fill-opacity="0"/>
		<g clip-path="url(#clip533_2312)">
			<path id="Vector" d="M18.1152 27.4253L15.5312 27.4253C14.5996 27.4253 13.8418 28.2178 13.8418 29.1919L13.8418 34.915C13.8418 35.5132 14.3066 36 14.8789 36L18.7676 36C19.3398 36 19.8047 35.5132 19.8047 34.915L19.8047 29.1919C19.8047 28.2178 19.0469 27.4253 18.1152 27.4253Z" fill="#232536" fill-opacity="1.000000" fill-rule="nonzero"/>
			<path id="Vector" d="M25.6992 23.9492L23.1152 23.9492C22.1836 23.9492 21.4258 24.7417 21.4258 25.7158L21.4258 34.915C21.4258 35.5132 21.8906 36 22.4629 36L26.3516 36C26.9238 36 27.3887 35.5132 27.3887 34.915L27.3887 25.7158C27.3887 24.7417 26.6309 23.9492 25.6992 23.9492Z" fill="#232536" fill-opacity="1.000000" fill-rule="nonzero"/>
			<path id="Vector" d="M33.4258 19.9888L30.8418 19.9888C29.9102 19.9888 29.1523 20.7812 29.1523 21.7554L29.1523 34.9146C29.1523 35.5132 29.6172 36 30.1895 36L34.0781 36C34.6504 36 35.1152 35.5132 35.1152 34.9146L35.1152 21.7554C35.1152 20.7812 34.3574 19.9888 33.4258 19.9888Z" fill="#232536" fill-opacity="1.000000" fill-rule="nonzero"/>
			<path id="Vector" d="M31.3672 12.668C31.0527 12.2012 30.5371 11.9541 29.9922 12.0063L25.1133 12.4785C24.5684 12.5312 24.1055 12.873 23.877 13.3926C23.6484 13.9121 23.7012 14.5015 24.0156 14.9688L24.2891 15.3711L18.2324 19.7466L18.2246 19.7515C17.7949 20.0693 17.5098 20.5435 17.4219 21.0859C17.332 21.6284 17.4512 22.1748 17.7559 22.624C18.0586 23.0732 18.5117 23.3721 19.0312 23.4648C19.1445 23.4849 19.2559 23.4951 19.3691 23.4951C19.7715 23.4951 20.1641 23.3657 20.5 23.1182L26.5664 18.7358L26.8477 19.1509C27.1348 19.5767 27.5879 19.8198 28.0781 19.8198C28.127 19.8198 28.1738 19.8174 28.2227 19.813C28.7676 19.7603 29.2305 19.4185 29.459 18.8984L31.5078 14.2441C31.7363 13.7241 31.6836 13.1353 31.3672 12.668Z" fill="#FFD050" fill-opacity="1.000000" fill-rule="nonzero"/>
		</g>
	</g>
</svg>
