<svg width="48.000000" height="48.000000" viewBox="0 0 48 48" fill="none" xmlns="http://www.w3.org/2000/svg" xmlns:xlink="http://www.w3.org/1999/xlink">
	<desc>
			Created with Pixso.
	</desc>
	<defs>
		<clipPath id="clip533_2339">
			<rect id="cyborg" width="24.000000" height="24.000000" transform="translate(12.000000 12.000000)" fill="white" fill-opacity="0"/>
		</clipPath>
		<clipPath id="clip533_2337">
			<rect id="business-and-trade 1" width="48.000000" height="48.000000" fill="white" fill-opacity="0"/>
		</clipPath>
	</defs>
	<rect id="business-and-trade 1" width="48.000000" height="48.000000" fill="#FFFFFF" fill-opacity="0"/>
	<g clip-path="url(#clip533_2337)">
		<rect id="cyborg" width="24.000000" height="24.000000" transform="translate(12.000000 12.000000)" fill="#FFFFFF" fill-opacity="0"/>
		<g clip-path="url(#clip533_2339)">
			<path id="Vector" d="M27.5176 19.0312C27.5176 19.8066 28.1484 20.4375 28.9238 20.4375L33.1035 20.4375C33.0293 19.4478 32.7988 18.502 32.4316 17.625L28.9238 17.625C28.1484 17.625 27.5176 18.2559 27.5176 19.0312Z" fill="#232536" fill-opacity="1.000000" fill-rule="nonzero"/>
			<path id="Vector" d="M18.377 36L26.8145 36C27.2031 36 27.5176 35.6855 27.5176 35.2969L27.5176 31.6875L28.9238 31.6875L28.9238 27.1172L21.8926 21.8438L15.5645 21.8438C15.1758 21.8438 14.8613 22.1582 14.8613 22.5469C14.8613 25.0371 15.8828 27.4229 17.6738 29.1426L17.6738 35.2969C17.6738 35.6855 17.9883 36 18.377 36Z" fill="#FFD050" fill-opacity="1.000000" fill-rule="nonzero"/>
			<path id="Vector" d="M24.002 12C23.6133 12 23.2988 12.3145 23.2988 12.7031L23.2988 13.4062L20.3574 13.4062C20.0664 12.5894 19.293 12 18.377 12C17.2129 12 16.2676 12.9463 16.2676 14.1094C16.2676 15.2725 17.2129 16.2188 18.377 16.2188C19.293 16.2188 20.0664 15.6294 20.3574 14.8125L23.2988 14.8125L23.2988 17.625L16.1387 17.625C15.8477 16.8081 15.0742 16.2188 14.1582 16.2188C12.9941 16.2188 12.002 17.165 12.002 18.3281C12.002 19.4912 12.9941 20.4375 14.1582 20.4375C15.0742 20.4375 15.8477 19.8481 16.1387 19.0312L23.2988 19.0312L23.2988 21.1411L30.0488 26.2031C30.2266 26.3359 30.3301 26.5444 30.3301 26.7656L30.3301 31.6875L31.0332 31.6875C32.1973 31.6875 33.1426 30.7412 33.1426 29.5781L33.1426 26.0625L35.2988 26.0625C35.5586 26.0625 35.7969 25.9194 35.918 25.6909C36.041 25.4624 36.0273 25.1851 35.8848 24.9692L33.7539 21.8438L28.9238 21.8438C27.373 21.8438 26.1113 20.5825 26.1113 19.0312C26.1113 17.48 27.373 16.2188 28.9238 16.2188L31.6895 16.2188C30.0625 13.6865 27.2285 12 24.002 12L24.002 12Z" fill="#232536" fill-opacity="1.000000" fill-rule="nonzero"/>
		</g>
	</g>
</svg>
