<svg width="23.000000" height="23.000000" viewBox="0 0 23 23" fill="none" xmlns="http://www.w3.org/2000/svg" xmlns:xlink="http://www.w3.org/1999/xlink">
	<desc>
			Created with Pixso.
	</desc>
	<defs>
		<clipPath id="clip533_2350">
			<rect id="shuttle" width="23.000000" height="23.000000" fill="white" fill-opacity="0"/>
		</clipPath>
	</defs>
	<rect id="shuttle" width="23.000000" height="23.000000" fill="#FFFFFF" fill-opacity="0"/>
	<g clip-path="url(#clip533_2350)">
		<path id="Vector" d="M5.84961 6.21143L3.85742 6.36523C3.30273 6.4082 2.81055 6.69873 2.50391 7.1626L0.205078 10.6382C-0.0273438 10.9902 -0.0644531 11.4302 0.105469 11.8159C0.277344 12.2017 0.626953 12.4702 1.04297 12.5347L2.86914 12.8174C3.29492 10.5522 4.31641 8.29297 5.84961 6.21143Z" fill="#FFD050" fill-opacity="1.000000" fill-rule="nonzero"/>
		<path id="Vector" d="M10.1836 20.1318L10.4668 21.9561C10.5312 22.3726 10.7988 22.7231 11.1855 22.894C11.3457 22.9648 11.5156 23 11.6836 23C11.9219 23 12.1562 22.9307 12.3633 22.7949L15.8379 20.4971C16.3027 20.1904 16.5918 19.6963 16.6348 19.1421L16.7891 17.1494C14.707 18.6831 12.4492 19.7051 10.1836 20.1318Z" fill="#FFD050" fill-opacity="1.000000" fill-rule="nonzero"/>
		<path id="Vector" d="M9.49609 18.8667C9.56055 18.8667 9.62305 18.8613 9.6875 18.8506C10.6367 18.6919 11.5508 18.4248 12.4238 18.0747L4.92383 10.5762C4.57422 11.4487 4.30664 12.3633 4.14844 13.312C4.08594 13.686 4.21094 14.0674 4.48047 14.3354L8.66406 18.5195C8.88672 18.7422 9.1875 18.8667 9.49609 18.8667Z" fill="#FFD050" fill-opacity="1.000000" fill-rule="nonzero"/>
		<path id="Vector" d="M21.166 10.1973C23.002 6.6499 23.0684 2.90088 22.9727 1.14258C22.9395 0.540039 22.4609 0.0595703 21.8574 0.0268555C21.5703 0.0112305 21.2324 0 20.8496 0C18.8828 0 15.7734 0.297852 12.8027 1.83398C10.4434 3.05469 7.34766 5.74316 5.52148 9.27588C5.54297 9.29248 5.56445 9.31055 5.58398 9.33008L13.6699 17.416C13.6895 17.436 13.707 17.457 13.7246 17.4785C17.2578 15.6523 19.9453 12.5576 21.166 10.1973ZM13.373 4.8623C14.6875 3.54883 16.8242 3.54883 18.1387 4.8623C18.7734 5.49854 19.125 6.34473 19.125 7.24463C19.125 8.14453 18.7734 8.99072 18.1387 9.62695C17.4805 10.2837 16.6172 10.6123 15.7559 10.6123C14.8926 10.6123 14.0293 10.2837 13.373 9.62695C12.7363 8.99072 12.3867 8.14453 12.3867 7.24463C12.3867 6.34473 12.7363 5.49854 13.373 4.8623Z" fill="#232536" fill-opacity="1.000000" fill-rule="nonzero"/>
		<path id="Vector" d="M14.3262 8.67383C15.1152 9.4624 16.3965 9.4624 17.1855 8.67383C17.5664 8.29199 17.7773 7.78467 17.7773 7.24463C17.7773 6.70459 17.5664 6.19727 17.1855 5.81543C16.791 5.42139 16.2734 5.22412 15.7559 5.22412C15.2383 5.22412 14.7207 5.42139 14.3262 5.81543C13.9453 6.19727 13.7344 6.70459 13.7344 7.24463C13.7344 7.78467 13.9453 8.29248 14.3262 8.67383Z" fill="#232536" fill-opacity="1.000000" fill-rule="nonzero"/>
		<path id="Vector" d="M0.6875 18.9541C0.859375 18.9541 1.0332 18.8882 1.16406 18.7563L3.36328 16.5566C3.62695 16.2935 3.62695 15.8667 3.36328 15.6035C3.10156 15.3403 2.67383 15.3403 2.41016 15.6035L0.210938 17.8037C-0.0527344 18.0669 -0.0527344 18.4932 0.210938 18.7563C0.341797 18.8882 0.515625 18.9541 0.6875 18.9541Z" fill="#FFD050" fill-opacity="1.000000" fill-rule="nonzero"/>
		<path id="Vector" d="M5.38086 17.6201C5.11719 17.3569 4.68945 17.3569 4.42773 17.6201L0.197266 21.8496C-0.0664062 22.1128 -0.0664062 22.5396 0.197266 22.8027C0.328125 22.9346 0.501953 23 0.673828 23C0.845703 23 1.01953 22.9346 1.15039 22.8027L5.37891 18.5732C5.64258 18.3101 5.64258 17.8833 5.38086 17.6201Z" fill="#FFD050" fill-opacity="1.000000" fill-rule="nonzero"/>
		<path id="Vector" d="M6.44141 19.6357L4.24219 21.8359C3.97852 22.0991 3.97852 22.5254 4.24219 22.7886C4.37305 22.9204 4.54688 22.9863 4.71875 22.9863C4.89062 22.9863 5.06445 22.9204 5.19531 22.7886L7.39453 20.5889C7.6582 20.3257 7.6582 19.8989 7.39453 19.6357C7.13281 19.3726 6.70508 19.3726 6.44141 19.6357Z" fill="#FFD050" fill-opacity="1.000000" fill-rule="nonzero"/>
	</g>
</svg>
