<svg width="16.000000" height="16.000000" viewBox="0 0 16 16" fill="none" xmlns="http://www.w3.org/2000/svg" xmlns:xlink="http://www.w3.org/1999/xlink">
	<desc>
			Created with Pixso.
	</desc>
	<defs>
		<clipPath id="clip13_119">
			<rect id="Instagram / Negative" width="16.000000" height="16.000000" fill="white" fill-opacity="0"/>
		</clipPath>
	</defs>
	<rect id="Instagram / Negative" width="16.000000" height="16.000000" fill="#FFFFFF" fill-opacity="0"/>
	<g clip-path="url(#clip13_119)">
		<path id="Vector" d="M8 1.44043C10.1367 1.44043 10.3906 1.4502 11.2305 1.4873C12.0117 1.52197 12.4336 1.65332 12.7148 1.7627C13.0879 1.90625 13.3555 2.08105 13.6348 2.35938C13.916 2.64062 14.0879 2.90625 14.2305 3.27832C14.3398 3.55957 14.4727 3.98438 14.5059 4.7627C14.543 5.60645 14.5527 5.85938 14.5527 7.99365C14.5527 10.1313 14.543 10.3843 14.5059 11.2251C14.4727 12.0063 14.3398 12.4282 14.2305 12.7095C14.0879 13.0811 13.9121 13.3501 13.6348 13.6279C13.3535 13.9092 13.0879 14.0811 12.7148 14.2251C12.4336 14.3345 12.0098 14.4658 11.2305 14.5C10.3867 14.5376 10.1348 14.5469 8 14.5469C5.86328 14.5469 5.60938 14.5376 4.76953 14.5C3.98828 14.4658 3.56641 14.3345 3.28516 14.2251C2.91211 14.0811 2.64453 13.9062 2.36523 13.6279C2.08398 13.3467 1.91211 13.0811 1.76953 12.7095C1.66016 12.4282 1.52734 12.0029 1.49414 11.2251C1.45703 10.3813 1.44727 10.1279 1.44727 7.99365C1.44727 5.85645 1.45703 5.60303 1.49414 4.7627C1.52734 3.98145 1.66016 3.55957 1.76953 3.27832C1.91211 2.90625 2.08789 2.6377 2.36523 2.35938C2.64648 2.07812 2.91211 1.90625 3.28516 1.7627C3.56641 1.65332 3.99023 1.52197 4.76953 1.4873C5.60938 1.4502 5.86328 1.44043 8 1.44043ZM8 0C5.82812 0 5.55664 0.00927734 4.70312 0.046875C3.85352 0.0844727 3.26953 0.22168 2.76172 0.418945C2.23438 0.625 1.78711 0.896973 1.34375 1.34375C0.896484 1.7876 0.625 2.23438 0.417969 2.75928C0.222656 3.26855 0.0839844 3.8501 0.046875 4.7002C0.00976562 5.55615 0 5.82812 0 8C0 10.1719 0.00976562 10.4438 0.046875 11.2969C0.0839844 12.147 0.222656 12.7314 0.417969 13.2373C0.625 13.7656 0.896484 14.2124 1.34375 14.6562C1.78711 15.1001 2.23438 15.375 2.75977 15.5781C3.26953 15.7749 3.84961 15.9126 4.69922 15.9502C5.55273 15.9873 5.82422 15.9971 7.99609 15.9971C10.168 15.9971 10.4414 15.9873 11.293 15.9502C12.1445 15.9126 12.7285 15.7749 13.2344 15.5781C13.7598 15.375 14.207 15.1001 14.6504 14.6562C15.0938 14.2124 15.3691 13.7656 15.5723 13.2407C15.7695 12.7314 15.9062 12.1499 15.9434 11.2998C15.9805 10.4468 15.9902 10.1748 15.9902 8.00293C15.9902 5.83105 15.9805 5.55957 15.9434 4.70605C15.9062 3.85645 15.7695 3.27197 15.5723 2.76562C15.375 2.23438 15.1035 1.7876 14.6562 1.34375C14.2129 0.899902 13.7656 0.625 13.2402 0.421875C12.7305 0.225098 12.1504 0.0874023 11.3008 0.0498047C10.4434 0.00927734 10.1719 0 8 0Z" fill="#232536" fill-opacity="1.000000" fill-rule="nonzero"/>
		<path id="Vector" d="M8 3.89062C5.73047 3.89062 3.89062 5.73145 3.89062 8C3.89062 10.2686 5.73047 12.1094 8 12.1094C10.2695 12.1094 12.1094 10.2686 12.1094 8C12.1094 5.73145 10.2695 3.89062 8 3.89062ZM8 10.6655C6.52734 10.6655 5.33398 9.47168 5.33398 8C5.33398 6.52832 6.52734 5.33447 8 5.33447C9.47266 5.33447 10.666 6.52832 10.666 8C10.666 9.47168 9.47266 10.6655 8 10.6655Z" fill="#232536" fill-opacity="1.000000" fill-rule="nonzero"/>
		<path id="Vector" d="M13.2305 3.72852C13.2305 4.25977 12.8008 4.68799 12.2715 4.68799C11.7402 4.68799 11.3125 4.25635 11.3125 3.72852C11.3125 3.19727 11.7441 2.76904 12.2715 2.76904C12.8008 2.76904 13.2305 3.2002 13.2305 3.72852Z" fill="#232536" fill-opacity="1.000000" fill-rule="nonzero"/>
	</g>
</svg>
