<svg width="24.000000" height="24.000000" viewBox="0 0 24 24" fill="none" xmlns="http://www.w3.org/2000/svg" xmlns:xlink="http://www.w3.org/1999/xlink">
	<desc>
			Created with Pixso.
	</desc>
	<defs>
		<filter id="filter_13_122_dd" x="0.000000" y="0.000000" width="24.000000" height="24.000000" filterUnits="userSpaceOnUse" color-interpolation-filters="sRGB">
			<feFlood flood-opacity="0" result="BackgroundImageFix"/>
			<feColorMatrix in="SourceAlpha" type="matrix" values="0 0 0 0 0 0 0 0 0 0 0 0 0 0 0 0 0 0 127 0" result="hardAlpha"/>
			<feOffset dx="0" dy="4"/>
			<feGaussianBlur stdDeviation="1.33333"/>
			<feComposite in2="hardAlpha" operator="out" k2="-1" k3="1"/>
			<feColorMatrix type="matrix" values="0 0 0 0 0 0 0 0 0 0 0 0 0 0 0 0 0 0 0.25 0"/>
			<feBlend mode="normal" in2="BackgroundImageFix" result="effect_dropShadow_1"/>
			<feBlend mode="normal" in="SourceGraphic" in2="effect_dropShadow_1" result="shape"/>
		</filter>
		<clipPath id="clip13_122">
			<rect id="LinkedIn / Negative" width="16.000000" height="16.000000" transform="translate(4.000000 0.000000)" fill="white" fill-opacity="0"/>
		</clipPath>
	</defs>
	<g filter="url(#filter_13_122_dd)">
		<rect id="LinkedIn / Negative" width="16.000000" height="16.000000" transform="translate(4.000000 0.000000)" fill="#FFFFFF" fill-opacity="0"/>
		<g clip-path="url(#clip13_122)">
			<path id="Vector" d="M18.8164 0L5.18164 0C4.52734 0 4 0.515625 4 1.15332L4 14.8438C4 15.4814 4.52734 16 5.18164 16L18.8164 16C19.4688 16 20 15.4814 20 14.8467L20 1.15332C20 0.515625 19.4688 0 18.8164 0ZM8.74609 13.6343L6.37109 13.6343L6.37109 5.99707L8.74609 5.99707L8.74609 13.6343ZM7.55859 4.95605C6.79688 4.95605 6.18164 4.34082 6.18164 3.58105C6.18164 2.82178 6.79688 2.20605 7.55859 2.20605C8.31836 2.20605 8.93359 2.82178 8.93359 3.58105C8.93359 4.3374 8.31836 4.95605 7.55859 4.95605ZM17.6348 13.6343L15.2617 13.6343L15.2617 9.92188C15.2617 9.0376 15.2461 7.89697 14.0273 7.89697C12.793 7.89697 12.6055 8.8623 12.6055 9.85938L12.6055 13.6343L10.2383 13.6343L10.2383 5.99707L12.5117 5.99707L12.5117 7.04053L12.543 7.04053C12.8594 6.44043 13.6348 5.80615 14.7871 5.80615C17.1914 5.80615 17.6348 7.3877 17.6348 9.44385L17.6348 13.6343Z" fill="#232536" fill-opacity="1.000000" fill-rule="nonzero"/>
		</g>
	</g>
</svg>
