<svg width="136.000000" height="32.000000" viewBox="0 0 136 32" fill="none" xmlns="http://www.w3.org/2000/svg" xmlns:xlink="http://www.w3.org/1999/xlink">
	<desc>
			Created with Pixso.
	</desc>
	<defs>
		<clipPath id="clip802_445">
			<rect id="Logo 5" width="136.000000" height="32.000000" fill="white" fill-opacity="0"/>
		</clipPath>
	</defs>
	<rect id="Logo 5" width="136.000000" height="32.000000" fill="#FFFFFF" fill-opacity="0"/>
	<g clip-path="url(#clip802_445)">
		<path id="Vector" d="M39 9.8999L42.4199 9.8999L42.4199 23.7676L39 23.7676L39 9.8999ZM43.7832 18.5513C43.7832 15.1162 45.9141 13.0576 49.1094 13.0576C52.3066 13.0576 54.4355 15.1162 54.4355 18.5513C54.4355 21.9858 52.3809 24.0659 49.1094 24.0659C45.8398 24.0659 43.7832 22.0605 43.7832 18.5513ZM51.0488 18.5513C51.0488 16.6631 50.3145 15.5537 49.1426 15.5537C47.9707 15.5537 47.2461 16.6206 47.2461 18.5513C47.2461 20.4819 47.9707 21.5381 49.1426 21.5381C50.3145 21.5381 51.0703 20.4819 51.0703 18.562L51.0488 18.5513ZM55.8008 24.4819L59.1016 24.4819C59.252 24.8384 59.5156 25.1353 59.8496 25.3276C60.1855 25.5205 60.5723 25.5981 60.957 25.5488C62.2656 25.5488 62.9473 24.8447 62.9473 23.7993L62.9473 21.8794L62.959 21.8794C62.6758 22.4771 62.2207 22.9756 61.6504 23.3086C61.0801 23.6421 60.4219 23.7944 59.7637 23.7461C57.2598 23.7461 55.5977 21.8364 55.5977 18.5513C55.5977 15.2656 57.1855 13.2173 59.8594 13.2173C60.5352 13.1812 61.2051 13.356 61.7773 13.7168C62.3496 14.0781 62.7949 14.6079 63.0547 15.2334L62.959 15.2334L62.959 13.3027L66.3457 13.3027L66.3457 23.6929C66.3457 26.1997 64.1309 27.7676 60.8711 27.7676C57.9102 27.7568 56.0137 26.4023 55.8203 24.4927L55.8008 24.4819ZM62.959 18.5513C62.959 16.8765 62.1914 15.8203 60.9766 15.8203C59.7637 15.8203 59.0176 16.8872 59.0176 18.5513C59.0176 20.2153 59.752 21.1968 60.9766 21.1968C62.2031 21.1968 62.959 20.29 62.959 18.5513ZM67.6992 18.5513C67.6992 15.1162 69.8301 13.0576 73.0254 13.0576C76.2227 13.0576 78.3535 15.1162 78.3535 18.5513C78.3535 21.9858 76.2852 24.0659 73.0254 24.0659C69.7656 24.0659 67.7207 22.0605 67.7207 18.5513L67.6992 18.5513ZM74.9648 18.5513C74.9648 16.6631 74.2188 15.5537 73.0586 15.5537C71.8965 15.5537 71.1621 16.6206 71.1621 18.5513C71.1621 20.4819 71.8867 21.5381 73.0586 21.5381C74.2305 21.5381 74.9863 20.4819 74.9863 18.562L74.9648 18.5513ZM79.7383 10.7749C79.7227 10.4258 79.8125 10.0806 79.9941 9.7832C80.1777 9.48584 80.4453 9.25 80.7637 9.10645C81.0801 8.9624 81.4336 8.91699 81.7773 8.97559C82.1211 9.03467 82.4395 9.19482 82.6914 9.43652C82.9434 9.67773 83.1172 9.98926 83.1914 10.3306C83.2637 10.6714 83.2344 11.0273 83.1055 11.3511C82.9746 11.6753 82.752 11.9531 82.4629 12.1489C82.1738 12.3442 81.834 12.4492 81.4844 12.4497C81.2617 12.4551 81.041 12.4165 80.832 12.3354C80.625 12.2549 80.4355 12.1333 80.2734 11.9785C80.1133 11.8237 79.9863 11.6387 79.8965 11.4341C79.8086 11.229 79.7617 11.0088 79.7598 10.7856L79.7383 10.7749ZM79.7383 13.292L83.1992 13.292L83.1992 23.8101L79.791 23.8101L79.7383 13.292ZM95.6523 18.5513C95.6523 21.9751 94.1191 23.9595 91.5098 23.9595C90.8418 24.0005 90.1758 23.8354 89.6055 23.4863C89.0332 23.1372 88.582 22.6211 88.3125 22.0073L88.25 22.0073L88.25 27.1914L84.8301 27.1914L84.8301 13.3242L88.2285 13.3242L88.2285 15.2017L88.293 15.2017C88.5527 14.5757 88.998 14.0454 89.5703 13.6826C90.1426 13.3198 90.8125 13.1426 91.4883 13.1748C94.1719 13.1533 95.7168 15.127 95.7168 18.562L95.6523 18.5513ZM92.1699 18.5513C92.1699 16.8872 91.3926 15.8096 90.1875 15.8096C88.9844 15.8096 88.2285 16.8765 88.2168 18.5513C88.207 20.2261 88.9844 21.2817 90.1875 21.2817C91.3926 21.2817 92.2344 20.29 92.2344 18.562L92.1699 18.5513ZM101.49 13.0469C104.357 13.0469 106.137 14.4014 106.156 16.5776L103.035 16.5776C103.035 15.8203 102.408 15.3511 101.471 15.3511C100.533 15.3511 100.084 15.7139 100.084 16.2578C100.084 16.8018 100.479 16.9722 101.268 17.1323L103.463 17.5806C105.594 18.0283 106.445 18.8818 106.445 20.4712C106.445 22.6045 104.475 24.0552 101.545 24.0552C98.6152 24.0552 96.707 22.6475 96.5703 20.5034L99.8828 20.5034C99.9785 21.2817 100.596 21.7407 101.598 21.7407C102.6 21.7407 103.068 21.4204 103.068 20.8555C103.068 20.29 102.748 20.1938 101.928 20.0234L99.9473 19.6069C97.8906 19.1699 96.8145 18.0923 96.8145 16.4819C96.8789 14.3911 98.668 13.0576 101.555 13.0576L101.49 13.0469ZM117.896 23.7993L114.584 23.7993L114.584 21.8262L114.52 21.8262C114.334 22.4844 113.932 23.0596 113.375 23.457C112.82 23.8545 112.145 24.0503 111.463 24.0127C110.947 24.0298 110.436 23.937 109.959 23.7417C109.482 23.5459 109.051 23.2515 108.697 22.8779C108.342 22.5044 108.07 22.0596 107.898 21.5732C107.727 21.0864 107.66 20.5693 107.701 20.0552L107.701 13.3027L111.121 13.3027L111.121 19.3193C111.121 20.5566 111.771 21.2285 112.838 21.2285C113.088 21.2266 113.334 21.1714 113.561 21.0659C113.787 20.96 113.988 20.8071 114.15 20.6172C114.312 20.4272 114.434 20.2041 114.502 19.9639C114.572 19.7231 114.588 19.4707 114.553 19.2231L114.553 13.3027L117.961 13.3027L117.896 23.7993ZM119.549 13.292L122.873 13.292L122.873 15.3188L122.947 15.3188C123.131 14.6699 123.523 14.0996 124.064 13.6982C124.607 13.2969 125.268 13.0864 125.939 13.1001C126.617 13.0415 127.291 13.2373 127.83 13.6494C128.371 14.062 128.736 14.6611 128.859 15.3296L129.008 15.3296C129.221 14.6572 129.65 14.0742 130.229 13.6709C130.807 13.2681 131.5 13.0674 132.205 13.1001C132.672 13.0825 133.139 13.1636 133.572 13.3389C134.006 13.5137 134.398 13.7783 134.723 14.1157C135.047 14.4531 135.299 14.8555 135.457 15.2964C135.615 15.7368 135.68 16.2065 135.646 16.6738L135.646 23.8101L132.205 23.8101L132.205 17.5483C132.205 16.4819 131.703 15.8843 130.734 15.8843C130.52 15.8809 130.305 15.9238 130.109 16.0107C129.912 16.0972 129.736 16.2256 129.594 16.3867C129.451 16.5479 129.346 16.7378 129.281 16.9438C129.221 17.1499 129.203 17.3672 129.232 17.5806L129.232 23.8101L125.973 23.8101L125.973 17.5166C125.973 16.4497 125.449 15.8843 124.514 15.8843C124.295 15.8828 124.08 15.9272 123.881 16.0156C123.684 16.104 123.506 16.2339 123.361 16.3965C123.217 16.5596 123.109 16.751 123.045 16.959C122.98 17.1665 122.963 17.3857 122.988 17.6016L122.988 23.8101L119.57 23.8101L119.549 13.292Z" fill="#282938" fill-opacity="1.000000" fill-rule="nonzero"/>
		<path id="Vector" d="M32.2363 10.8062C32.2363 8.68311 31.5957 6.60938 30.3984 4.85693C29.2031 3.10449 27.5039 1.75488 25.5293 0.984375C23.5527 0.214355 21.3906 0.0595703 19.3262 0.540527C17.2598 1.02197 15.3887 2.11621 13.9551 3.68066L0.660156 3.68066L0.660156 31.7778L28.7305 31.7778L28.7305 18.6465C29.832 17.6602 30.7148 16.4517 31.3184 15.1006C31.9219 13.7495 32.2344 12.2866 32.2363 10.8062ZM26.834 10.8062C26.8379 11.8237 26.5371 12.8188 25.9746 13.6655C25.4121 14.5127 24.6113 15.1733 23.6719 15.564C22.7344 15.9551 21.7012 16.0581 20.7051 15.8608C19.709 15.6641 18.793 15.1753 18.0723 14.4565C17.3535 13.7378 16.8633 12.8218 16.6641 11.8242C16.4648 10.8262 16.5664 9.79199 16.9551 8.85205C17.3438 7.91162 18.002 7.10791 18.8457 6.54248C19.6914 5.97705 20.6836 5.67529 21.6992 5.67529C23.0605 5.67529 24.3652 6.21582 25.3281 7.17773C26.2891 8.13965 26.832 9.44434 26.834 10.8062ZM23.3301 26.3696L6.06055 26.3696L6.06055 9.08887L11.3242 9.08887C11.2227 9.65576 11.168 10.2305 11.1641 10.8062C11.166 13.6035 12.2773 16.2852 14.2539 18.2632C16.2285 20.2407 18.9062 21.3535 21.6992 21.356C22.2461 21.353 22.791 21.3071 23.3301 21.2173L23.3301 26.3696Z" fill="#282938" fill-opacity="1.000000" fill-rule="nonzero"/>
	</g>
</svg>
