<svg width="135.000000" height="32.000000" viewBox="0 0 135 32" fill="none" xmlns="http://www.w3.org/2000/svg" xmlns:xlink="http://www.w3.org/1999/xlink">
	<desc>
			Created with Pixso.
	</desc>
	<defs>
		<clipPath id="clip802_431">
			<rect id="Logo 3" width="135.000000" height="32.000000" fill="white" fill-opacity="0"/>
		</clipPath>
	</defs>
	<rect id="Logo 3" width="135.000000" height="32.000000" fill="#FFFFFF" fill-opacity="0"/>
	<g clip-path="url(#clip802_431)">
		<path id="Vector" d="M39.3027 9.34668L42.6836 9.34668L42.6836 23.0049L39.3027 23.0049L39.3027 9.34668ZM44.0254 17.8481C44.0254 14.4702 46.0996 12.4546 49.2988 12.4546C52.5 12.4546 54.5742 14.4702 54.5742 17.8481C54.5742 21.2261 52.5449 23.2524 49.2988 23.2524C46.0547 23.2524 44.0254 21.2822 44.0254 17.8481ZM51.1816 17.8481C51.1816 15.9902 50.4492 14.8979 49.2988 14.8979C48.1504 14.8979 47.4297 16.0239 47.4297 17.8481C47.4297 19.6719 48.1387 20.7754 49.2988 20.7754C50.4609 20.7754 51.1816 19.7397 51.1816 17.8594L51.1816 17.8481ZM55.8477 23.6694L59.0938 23.6694C59.248 24.0122 59.5098 24.2959 59.8379 24.4785C60.168 24.6611 60.5469 24.7329 60.9199 24.6826C62.2051 24.6826 62.8809 23.9844 62.8809 22.9712L62.8809 21.0796L62.8125 21.0796C62.543 21.6592 62.1074 22.145 61.5586 22.4741C61.0098 22.8032 60.375 22.9609 59.7363 22.9263C57.2676 22.9263 55.6328 21.0459 55.6328 17.814C55.6328 14.5825 57.1895 12.5444 59.7812 12.5444C60.4395 12.5186 61.0918 12.6948 61.6465 13.0488C62.2031 13.4033 62.6367 13.9185 62.8926 14.5264L62.8926 12.646L66.2734 12.646L66.2734 22.8921C66.2734 25.3584 64.0977 26.8896 60.8867 26.8896C57.8984 26.8896 56.0391 25.5498 55.8477 23.6807L55.8477 23.6694ZM62.8926 17.8364C62.8926 16.1929 62.1367 15.1567 60.9414 15.1567C59.748 15.1567 59.0156 16.1816 59.0156 17.8364C59.0156 19.4917 59.7363 20.4263 60.9414 20.4263C62.1484 20.4263 62.8926 19.5146 62.8926 17.8481L62.8926 17.8364ZM67.5469 17.8364C67.5469 14.4585 69.6211 12.4434 72.8203 12.4434C76.0215 12.4434 78.1074 14.4585 78.1074 17.8364C78.1074 21.2148 76.0781 23.2412 72.8203 23.2412C69.5645 23.2412 67.5469 21.2822 67.5469 17.8481L67.5469 17.8364ZM74.7031 17.8364C74.7031 15.979 73.9707 14.8867 72.8203 14.8867C71.6719 14.8867 71.0059 16.0239 71.0059 17.8594C71.0059 19.6943 71.7168 20.7866 72.8672 20.7866C74.0156 20.7866 74.7031 19.7397 74.7031 17.8594L74.7031 17.8364ZM79.3926 10.1914C79.3828 9.8501 79.4766 9.51416 79.6582 9.22607C79.8398 8.9375 80.1055 8.70996 80.418 8.57178C80.7285 8.43311 81.0762 8.39062 81.4121 8.44922C81.748 8.5083 82.0605 8.66504 82.3066 8.90088C82.5547 9.13623 82.7246 9.43994 82.7988 9.77295C82.873 10.106 82.8457 10.4536 82.7227 10.7715C82.5996 11.0894 82.3828 11.3633 82.1035 11.5591C81.8223 11.7544 81.4922 11.8623 81.1504 11.8691C80.9238 11.8843 80.6973 11.853 80.4824 11.7769C80.2695 11.7007 80.0742 11.5806 79.9082 11.4253C79.7441 11.27 79.6133 11.082 79.5234 10.8735C79.4355 10.665 79.3906 10.4404 79.3926 10.2139L79.3926 10.1914ZM79.3926 12.6685L82.7734 12.6685L82.7734 23.0049L79.3926 23.0049L79.3926 12.6685ZM95.0469 17.8364C95.0469 21.2148 93.5488 23.1401 90.9785 23.1401C90.3203 23.1821 89.6621 23.0215 89.0996 22.6792C88.5352 22.3369 88.0879 21.8296 87.8223 21.2261L87.7539 21.2261L87.7539 26.3154L84.373 26.3154L84.373 12.646L87.7539 12.646L87.7539 14.4927L87.8223 14.4927C88.0762 13.8789 88.5137 13.3584 89.0742 13.002C89.6348 12.6455 90.291 12.4697 90.9551 12.4995C93.5488 12.5444 95.0918 14.4814 95.0918 17.8594L95.0469 17.8364ZM91.666 17.8364C91.666 16.1929 90.9102 15.1455 89.7266 15.1455C88.543 15.1455 87.7891 16.2041 87.7773 17.8364C87.7656 19.4692 88.543 20.5166 89.7266 20.5166C90.9102 20.5166 91.666 19.4917 91.666 17.8594L91.666 17.8364ZM100.852 12.4321C103.656 12.4321 105.359 13.7607 105.438 15.8887L102.361 15.8887C102.361 15.1567 101.752 14.6953 100.818 14.6953C99.8809 14.6953 99.4648 15.0557 99.4648 15.585C99.4648 16.1138 99.8379 16.2827 100.592 16.4404L102.756 16.8794C104.818 17.3188 105.697 18.1519 105.697 19.7173C105.697 21.8564 103.748 23.23 100.873 23.23C98 23.23 96.1172 21.8564 95.9707 19.751L99.2285 19.751C99.3301 20.5166 99.9375 20.9668 100.93 20.9668C101.922 20.9668 102.373 20.6406 102.373 20.1001C102.373 19.5596 102.057 19.4468 101.246 19.2778L99.2969 18.8613C97.2773 18.4448 96.2188 17.375 96.2188 15.7988C96.2422 13.772 98.0566 12.4546 100.852 12.4546L100.852 12.4321ZM116.979 22.9824L113.721 22.9824L113.721 21.0571L113.654 21.0571C113.475 21.7036 113.08 22.269 112.535 22.6606C111.99 23.0518 111.326 23.2446 110.656 23.2075C110.143 23.2368 109.629 23.1553 109.148 22.9692C108.67 22.7827 108.234 22.4961 107.877 22.1274C107.518 21.7593 107.242 21.3184 107.068 20.8345C106.895 20.3506 106.826 19.8354 106.869 19.3228L106.869 12.646L110.25 12.646L110.25 18.5459C110.25 19.7734 110.883 20.4263 111.93 20.4263C112.176 20.4268 112.418 20.375 112.643 20.2739C112.867 20.1729 113.066 20.0254 113.229 19.8408C113.391 19.6562 113.512 19.4395 113.582 19.2046C113.654 18.9692 113.676 18.7217 113.643 18.4785L113.643 12.646L117.025 12.646L116.979 22.9824ZM118.613 12.646L121.883 12.646L121.883 14.6387L121.949 14.6387C122.129 14.001 122.516 13.4404 123.047 13.0454C123.58 12.6499 124.227 12.4424 124.891 12.4546C125.566 12.4004 126.236 12.6021 126.768 13.0195C127.301 13.4365 127.656 14.0391 127.766 14.7065L127.832 14.7065C128.037 14.0317 128.461 13.4443 129.035 13.0366C129.611 12.6289 130.307 12.4243 131.012 12.4546C131.471 12.439 131.93 12.5205 132.355 12.6934C132.781 12.8662 133.166 13.127 133.484 13.458C133.803 13.7896 134.049 14.1841 134.205 14.6167C134.361 15.0488 134.426 15.5093 134.391 15.9678L134.391 23.0049L131.012 23.0049L131.012 16.8682C131.012 15.7422 130.504 15.2246 129.557 15.2246C129.346 15.2227 129.137 15.2661 128.943 15.3521C128.75 15.4375 128.578 15.564 128.439 15.7217C128.299 15.8799 128.195 16.0659 128.133 16.2676C128.07 16.4692 128.053 16.6816 128.08 16.8911L128.08 23.0049L124.869 23.0049L124.869 16.8232C124.869 15.7876 124.361 15.2246 123.438 15.2246C123.225 15.2246 123.012 15.27 122.818 15.3574C122.623 15.4448 122.449 15.5728 122.307 15.7324C122.166 15.8921 122.059 16.0796 121.996 16.2832C121.932 16.4868 121.912 16.7017 121.938 16.9136L121.938 23.0049L118.557 23.0049L118.613 12.646Z" fill="#282938" fill-opacity="1.000000" fill-rule="nonzero"/>
		<path id="Vector" d="M29.8457 9.96631C29.2734 8.65625 28.5137 7.43506 27.5918 6.34082C26.2305 4.67432 24.5312 3.31543 22.6055 2.35303C20.6797 1.39062 18.5723 0.84668 16.4199 0.756348C14.2695 0.666504 12.123 1.03271 10.123 1.83105C8.12305 2.62939 6.31641 3.8418 4.82031 5.38818C3.32227 6.93457 2.16992 8.78027 1.43945 10.8037C0.708984 12.8271 0.414062 14.9819 0.576172 17.127C0.738281 19.272 1.35352 21.3584 2.38281 23.249C3.41016 25.1392 4.82617 26.7905 6.53906 28.0947C7.63867 28.9478 8.85156 29.6416 10.1465 30.1553C11.959 30.8975 13.9004 31.2798 15.8594 31.2812C19.9062 31.272 23.7812 29.6611 26.6406 26.8013C29.5 23.9414 31.1055 20.0659 31.1094 16.0239C31.1113 13.9395 30.6816 11.8765 29.8457 9.96631ZM15.8477 3.85205C17.6094 3.85205 19.3477 4.23633 20.9434 4.97803C20.5547 5.146 20.1445 5.26367 19.7266 5.32715C18.3477 5.52686 17.0703 6.16602 16.084 7.15039C15.0996 8.13477 14.459 9.41064 14.2598 10.7881C14.1719 11.561 13.8203 12.2793 13.2637 12.8232C12.707 13.3667 11.9805 13.7017 11.2051 13.772C9.82617 13.9717 8.54883 14.6108 7.56445 15.5952C6.57812 16.5796 5.93945 17.8555 5.73828 19.2329C5.67188 19.9678 5.35742 20.6582 4.84766 21.1924C3.9707 19.3384 3.57617 17.292 3.70117 15.2446C3.82812 13.1973 4.4707 11.2148 5.56836 9.48193C6.66797 7.74902 8.1875 6.32227 9.98633 5.33398C11.7871 4.3457 13.8066 3.82812 15.8594 3.82959L15.8477 3.85205ZM6.52734 23.9058C6.66406 23.7822 6.79883 23.6694 6.93359 23.5342C7.93555 22.563 8.58008 21.2812 8.75977 19.8975C8.83203 19.1196 9.17969 18.3931 9.74023 17.8481C10.2793 17.2876 11.0039 16.9434 11.7793 16.8799C13.1582 16.6802 14.4355 16.041 15.4219 15.0566C16.4062 14.0723 17.0469 12.7964 17.2461 11.4189C17.2949 10.6055 17.6445 9.83887 18.2266 9.26807C18.7793 8.71875 19.5117 8.38672 20.2891 8.3335C21.5566 8.15967 22.7383 7.59668 23.6699 6.72363C24.7324 7.604 25.6328 8.66357 26.3301 9.85352C26.2871 9.91162 26.2383 9.96436 26.1836 10.0112C25.6465 10.5767 24.9219 10.9287 24.1445 11.002C22.7637 11.1982 21.4844 11.8364 20.498 12.8213C19.5117 13.8062 18.873 15.0845 18.6777 16.4634C18.5977 17.2383 18.252 17.9624 17.7012 18.5122C17.1484 19.062 16.4219 19.4043 15.6465 19.481C14.2637 19.6787 12.9805 20.3169 11.9902 21.3008C11 22.2847 10.3516 23.5615 10.1465 24.9419C10.0859 25.4922 9.89648 26.0205 9.59375 26.4844C8.4375 25.7983 7.40234 24.9272 6.52734 23.9058ZM15.8477 28.252C14.7051 28.2534 13.5664 28.0942 12.4668 27.7793C12.8438 27.0791 13.0879 26.3154 13.1895 25.5273C13.2676 24.7539 13.6113 24.0312 14.1621 23.4814C14.7109 22.9321 15.4355 22.5889 16.209 22.5098C17.5898 22.3125 18.8691 21.6738 19.8574 20.6895C20.8457 19.7051 21.4863 18.4277 21.6875 17.0488C21.7656 16.2754 22.1094 15.5527 22.6602 15.0029C23.209 14.4531 23.9336 14.1099 24.707 14.0312C25.7461 13.896 26.7363 13.5098 27.5918 12.9053C28.0684 14.7041 28.123 16.5884 27.7578 18.4126C27.3906 20.2368 26.6094 21.9531 25.4766 23.4292C24.3418 24.9058 22.8848 26.103 21.2168 26.9292C19.5469 27.7554 17.7109 28.189 15.8477 28.1958L15.8477 28.252Z" fill="#282938" fill-opacity="1.000000" fill-rule="nonzero"/>
	</g>
</svg>
