<svg width="136.000000" height="32.000000" viewBox="0 0 136 32" fill="none" xmlns="http://www.w3.org/2000/svg" xmlns:xlink="http://www.w3.org/1999/xlink">
	<desc>
			Created with Pixso.
	</desc>
	<defs>
		<clipPath id="clip802_418">
			<rect id="Logo 2" width="136.000000" height="32.000000" fill="white" fill-opacity="0"/>
		</clipPath>
	</defs>
	<rect id="Logo 2" width="136.000000" height="32.000000" fill="#FFFFFF" fill-opacity="0"/>
	<g clip-path="url(#clip802_418)">
		<path id="Vector" d="M32.9336 7.80615L36.0527 7.80615L36.0527 22.9683L32.9336 22.9683L32.9336 7.80615Z" fill="#282938" fill-opacity="1.000000" fill-rule="nonzero"/>
		<path id="Vector" d="M37.7969 17.7739C37.7969 16.6826 38.1191 15.6167 38.7188 14.71C39.3203 13.8037 40.1758 13.0977 41.1738 12.6816C42.1738 12.2656 43.2715 12.1582 44.332 12.3735C45.3906 12.5884 46.3633 13.1162 47.127 13.8896C47.8887 14.6631 48.4062 15.6479 48.6133 16.7183C48.8203 17.7891 48.707 18.8975 48.2891 19.9038C47.8711 20.9097 47.166 21.7676 46.2656 22.3691C45.3633 22.9707 44.3047 23.2886 43.2246 23.2822C42.5078 23.2881 41.7969 23.1489 41.1328 22.874C40.4707 22.5986 39.8691 22.1929 39.3633 21.6797C38.8574 21.1665 38.459 20.5566 38.1895 19.8862C37.9219 19.2153 37.7871 18.4971 37.7969 17.7739ZM45.6152 17.7739C45.6035 17.3032 45.4531 16.8472 45.1855 16.4624C44.918 16.0771 44.543 15.7803 44.1094 15.6089C43.6758 15.4375 43.2012 15.3989 42.7461 15.498C42.2891 15.5977 41.873 15.8301 41.5488 16.167C41.2227 16.5039 41.0039 16.9302 40.916 17.3926C40.8301 17.855 40.8809 18.3325 41.0625 18.7661C41.2422 19.1997 41.5469 19.5693 41.9355 19.8296C42.3223 20.0898 42.7793 20.229 43.2441 20.229C43.5625 20.2354 43.877 20.1753 44.1719 20.0532C44.4648 19.9307 44.7305 19.7485 44.9512 19.5181C45.1699 19.2881 45.3418 19.0142 45.4531 18.7139C45.5645 18.4136 45.6113 18.0938 45.5938 17.7739L45.6152 17.7739Z" fill="#282938" fill-opacity="1.000000" fill-rule="nonzero"/>
		<path id="Vector" d="M60.9922 12.5801L60.9922 22.4536C60.9922 25.9375 58.2891 27.417 55.5547 27.417C54.5898 27.4966 53.623 27.3032 52.7617 26.8584C51.9004 26.4136 51.1797 25.7349 50.6797 24.8984L53.3086 23.3667C53.5234 23.8003 53.8613 24.1582 54.2812 24.3926C54.7012 24.627 55.1816 24.7266 55.6582 24.6782C55.9629 24.7158 56.2715 24.6855 56.5625 24.5889C56.8535 24.4927 57.1211 24.332 57.3418 24.1196C57.5645 23.9072 57.7383 23.6475 57.8496 23.3594C57.9609 23.0718 58.0078 22.7622 57.9883 22.4536L57.9883 21.499C57.625 21.9429 57.1641 22.2959 56.6426 22.5288C56.1211 22.7622 55.5527 22.8691 54.9824 22.8423C53.6055 22.8423 52.2832 22.2891 51.3086 21.3052C50.332 20.3213 49.7852 18.9873 49.7852 17.5957C49.7852 16.2041 50.332 14.8701 51.3086 13.8862C52.2832 12.9023 53.6055 12.3491 54.9824 12.3491C55.5527 12.3223 56.1211 12.4292 56.6426 12.6626C57.1641 12.8955 57.625 13.2485 57.9883 13.6924L57.9883 12.6431L60.9922 12.5801ZM57.9883 17.564C58.0078 17.062 57.8809 16.5654 57.6191 16.1377C57.3574 15.71 56.9766 15.3711 56.5215 15.1641C56.0684 14.9575 55.5645 14.8926 55.0723 14.9775C54.582 15.0625 54.1289 15.2935 53.7695 15.6411C53.4082 15.9888 53.1602 16.437 53.0566 16.9282C52.9512 17.4194 52.9941 17.9307 53.1797 18.397C53.3652 18.8633 53.6836 19.2632 54.0957 19.5449C54.5078 19.8262 54.9941 19.9771 55.4922 19.9775C55.8184 20.001 56.1445 19.9556 56.4492 19.8442C56.7559 19.7329 57.0371 19.5576 57.2715 19.3301C57.5059 19.1025 57.6914 18.8281 57.8145 18.5239C57.9395 18.2197 57.998 17.8926 57.9883 17.564Z" fill="#282938" fill-opacity="1.000000" fill-rule="nonzero"/>
		<path id="Vector" d="M62.75 17.7739C62.75 16.6836 63.0703 15.6182 63.6719 14.7124C64.2715 13.8062 65.125 13.1001 66.123 12.6836C67.1191 12.2666 68.2188 12.1582 69.2773 12.3716C70.3359 12.585 71.3086 13.1108 72.0723 13.8823C72.834 14.6538 73.3535 15.6362 73.5625 16.7056C73.7715 17.7749 73.6621 18.8828 73.248 19.8892C72.834 20.8955 72.1328 21.7554 71.2324 22.3589C70.334 22.9634 69.2773 23.2847 68.1973 23.2822C67.4805 23.2896 66.7676 23.1519 66.1035 22.8774C65.4375 22.6025 64.834 22.1973 64.3262 21.6841C63.8184 21.1709 63.418 20.561 63.1484 19.8892C62.877 19.2178 62.7422 18.4985 62.75 17.7739ZM70.5684 17.7739C70.5566 17.3032 70.4062 16.8462 70.1387 16.4614C69.8691 16.0762 69.4941 15.7793 69.0605 15.6079C68.625 15.437 68.1504 15.3989 67.6953 15.499C67.2383 15.5991 66.8223 15.833 66.498 16.1709C66.1719 16.5088 65.9531 16.936 65.8691 17.3989C65.7832 17.8623 65.8359 18.3403 66.0176 18.7734C66.2012 19.2065 66.5059 19.5762 66.8945 19.835C67.2852 20.0938 67.7422 20.231 68.209 20.229C68.5254 20.2354 68.8418 20.1753 69.1348 20.0532C69.4277 19.9307 69.6934 19.749 69.9141 19.5186C70.1348 19.2881 70.3047 19.0142 70.416 18.7139C70.5273 18.4136 70.5762 18.0938 70.5586 17.7739L70.5684 17.7739Z" fill="#282938" fill-opacity="1.000000" fill-rule="nonzero"/>
		<path id="Vector" d="M75.0898 9.7998C75.0898 9.43018 75.1992 9.06934 75.4023 8.76221C75.6055 8.45508 75.8945 8.21582 76.2324 8.07422C76.5703 7.93311 76.9434 7.896 77.3008 7.96777C77.6602 8.04004 77.9902 8.21777 78.248 8.479C78.5078 8.74023 78.6836 9.07324 78.7559 9.43555C78.8262 9.79785 78.791 10.1733 78.6504 10.5146C78.5098 10.856 78.2734 11.1475 77.9688 11.3525C77.6641 11.5581 77.3066 11.6675 76.9414 11.6675C76.4512 11.6621 75.9844 11.4634 75.6387 11.1143C75.291 10.7651 75.0957 10.2935 75.0898 9.7998ZM75.3906 12.5806L78.5098 12.5806L78.5098 22.9683L75.3906 22.9683L75.3906 12.5806Z" fill="#282938" fill-opacity="1.000000" fill-rule="nonzero"/>
		<path id="Vector" d="M91.8594 17.7734C91.8945 18.4644 91.793 19.1553 91.5625 19.8066C91.332 20.458 90.9766 21.0571 90.5156 21.5688C90.0547 22.0811 89.498 22.4956 88.877 22.7896C88.2559 23.084 87.584 23.251 86.9004 23.2822C86.3184 23.3213 85.7363 23.2271 85.1973 23.0073C84.6562 22.7876 84.1719 22.4473 83.7812 22.0122L83.7812 27.1436L80.6621 27.1436L80.6621 12.5796L83.7812 12.5796L83.7812 13.5552C84.1738 13.1216 84.6582 12.7832 85.1973 12.5649C85.7383 12.3472 86.3203 12.2549 86.9004 12.2964C87.582 12.3271 88.252 12.4932 88.8691 12.7856C89.4883 13.0776 90.043 13.4897 90.5039 13.998C90.9629 14.5068 91.3203 15.1021 91.5527 15.7495C91.7871 16.3975 91.8887 17.085 91.8594 17.7734ZM88.7402 17.7734C88.7285 17.2861 88.5723 16.813 88.2969 16.4141C88.0176 16.0151 87.6309 15.7075 87.1816 15.5303C86.7305 15.3525 86.2383 15.313 85.7676 15.4165C85.2949 15.5195 84.8633 15.7617 84.5273 16.1113C84.1914 16.4609 83.9629 16.9033 83.875 17.3823C83.7871 17.8618 83.8398 18.3564 84.0293 18.8052C84.2188 19.2539 84.5332 19.6362 84.9375 19.9043C85.3418 20.1724 85.8145 20.3145 86.2969 20.3125C86.6289 20.3267 86.959 20.27 87.2656 20.1465C87.5742 20.0229 87.8516 19.835 88.082 19.5952C88.3125 19.3555 88.4902 19.0693 88.6035 18.7554C88.7168 18.4414 88.7637 18.1064 88.7402 17.7734Z" fill="#282938" fill-opacity="1.000000" fill-rule="nonzero"/>
		<path id="Vector" d="M101.352 19.8516C101.352 22.2441 99.2715 23.2617 97.0684 23.2617C96.168 23.3438 95.2656 23.1514 94.4766 22.71C93.6875 22.2686 93.0469 21.5981 92.6387 20.7856L95.3203 19.2539C95.4277 19.6279 95.6582 19.9541 95.9746 20.1777C96.291 20.4014 96.6719 20.5083 97.0566 20.4814C97.7949 20.4814 98.1699 20.2505 98.1699 19.8306C98.1699 18.687 93.1074 19.2959 93.1074 15.6968C93.1074 13.4302 94.998 12.2969 97.1406 12.2969C97.9551 12.2603 98.7637 12.4468 99.4805 12.8364C100.197 13.2261 100.799 13.8047 101.215 14.5112L98.5332 15.938C98.416 15.6675 98.2207 15.437 97.9766 15.2749C97.7305 15.1128 97.4434 15.0264 97.1504 15.0254C96.6113 15.0254 96.2871 15.2349 96.2871 15.6021C96.2871 16.7983 101.352 16.0112 101.352 19.8516Z" fill="#282938" fill-opacity="1.000000" fill-rule="nonzero"/>
		<path id="Vector" d="M112.652 12.5801L112.652 22.9678L109.533 22.9678L109.533 21.9922C109.18 22.4238 108.729 22.7656 108.219 22.9902C107.711 23.2144 107.156 23.3145 106.602 23.2827C104.521 23.2827 102.744 21.7822 102.744 18.9805L102.744 12.5801L105.863 12.5801L105.863 18.5083C105.838 18.7563 105.867 19.0063 105.949 19.2422C106.029 19.4775 106.16 19.6924 106.33 19.8716C106.502 20.0513 106.709 20.1914 106.939 20.2822C107.17 20.373 107.416 20.4121 107.662 20.397C108.785 20.397 109.574 19.7256 109.574 18.2988L109.574 12.5801L112.652 12.5801Z" fill="#282938" fill-opacity="1.000000" fill-rule="nonzero"/>
		<path id="Vector" d="M130.326 16.5884L130.326 22.9678L127.207 22.9678L127.207 16.8613C127.207 15.812 126.717 15.1616 125.73 15.1616C124.742 15.1616 124.119 15.8853 124.119 17.1128L124.119 22.9678L121 22.9678L121 16.8613C121 15.812 120.512 15.1616 119.523 15.1616C118.537 15.1616 117.912 15.8853 117.912 17.1128L117.912 22.9678L114.793 22.9678L114.793 12.5801L117.912 12.5801L117.912 13.5352C118.234 13.1133 118.656 12.7793 119.141 12.563C119.623 12.3467 120.15 12.2554 120.678 12.2969C121.205 12.269 121.73 12.3804 122.203 12.6191C122.674 12.8584 123.078 13.2173 123.369 13.6611C123.713 13.1978 124.166 12.8296 124.688 12.5908C125.211 12.3525 125.783 12.251 126.354 12.2969C128.787 12.2969 130.326 13.9966 130.326 16.5884Z" fill="#282938" fill-opacity="1.000000" fill-rule="nonzero"/>
		<path id="Vector" d="M14.3555 5.07812L14.3555 0.618652L0.423828 0.618652L0.423828 31.2573L14.3555 31.2573L14.3555 26.7979C11.502 26.7979 8.76367 25.6538 6.74609 23.6172C4.72852 21.5806 3.5957 18.8184 3.5957 15.938C3.5957 13.0576 4.72852 10.2954 6.74609 8.25879C8.76367 6.22217 11.502 5.07812 14.3555 5.07812Z" fill="#282938" fill-opacity="1.000000" fill-rule="nonzero"/>
		<path id="Vector" d="M14.3535 5.07764L14.3535 26.7974C17.207 26.7974 19.9434 25.6533 21.9629 23.6167C23.9805 21.5801 25.1133 18.8179 25.1133 15.9375C25.1133 13.0571 23.9805 10.2949 21.9629 8.2583C19.9434 6.22168 17.207 5.07764 14.3535 5.07764Z" fill="#282938" fill-opacity="1.000000" fill-rule="nonzero"/>
		<path id="Vector" d="M132.945 12.5176C134.209 12.5176 135.232 11.4844 135.232 10.2095C135.232 8.93457 134.209 7.90088 132.945 7.90088C131.682 7.90088 130.658 8.93457 130.658 10.2095C130.658 11.4844 131.682 12.5176 132.945 12.5176Z" fill="#282938" fill-opacity="1.000000" fill-rule="nonzero"/>
	</g>
</svg>
