<svg width="153.000000" height="32.000000" viewBox="0 0 153 32" fill="none" xmlns="http://www.w3.org/2000/svg" xmlns:xlink="http://www.w3.org/1999/xlink">
	<desc>
			Created with Pixso.
	</desc>
	<defs>
		<clipPath id="clip802_434">
			<rect id="Logo 4" width="153.000000" height="32.000000" fill="white" fill-opacity="0"/>
		</clipPath>
	</defs>
	<rect id="Logo 4" width="153.000000" height="32.000000" fill="#FFFFFF" fill-opacity="0"/>
	<g clip-path="url(#clip802_434)">
		<path id="Vector" d="M49.373 25.4922C48.6016 25.5342 47.8379 25.3149 47.207 24.8706C46.9434 24.6753 46.7324 24.4189 46.5898 24.123C46.4473 23.8276 46.3789 23.502 46.3906 23.1743L46.3906 11.1685C46.3848 11.1172 46.3906 11.0659 46.4062 11.0171C46.4238 10.9688 46.4512 10.9248 46.4883 10.8887C46.5234 10.8525 46.5684 10.8252 46.6152 10.8081C46.6641 10.7915 46.7168 10.7861 46.7676 10.7925L48.9453 10.7925C49.1914 10.7925 49.3066 10.9224 49.3066 11.1685L49.3066 22.2417C49.3066 22.7339 49.5273 22.98 49.9805 22.98C50.1738 22.9878 50.3652 22.9658 50.5508 22.915C50.8105 22.915 50.9531 22.9927 50.9668 23.2261L51.1602 24.8447C51.1699 24.8921 51.1699 24.9409 51.1582 24.9873C51.1465 25.0342 51.127 25.0781 51.0957 25.1162C51.0664 25.1543 51.0293 25.1855 50.9883 25.208C50.9453 25.2305 50.8984 25.2437 50.8496 25.2466C50.373 25.4038 49.875 25.4868 49.373 25.4922Z" fill="#282938" fill-opacity="1.000000" fill-rule="nonzero"/>
		<path id="Vector" d="M61.6211 24.1064C60.5273 25.0103 59.1523 25.5044 57.7324 25.5044C56.3145 25.5044 54.9395 25.0103 53.8457 24.1064C52.8828 23.1367 52.3438 21.8262 52.3438 20.4609C52.3438 19.0952 52.8828 17.7852 53.8457 16.8149C54.9414 15.9165 56.3145 15.4253 57.7324 15.4253C59.1504 15.4253 60.5254 15.9165 61.6211 16.8149C62.5605 17.7939 63.0859 19.0981 63.0859 20.4546C63.0859 21.811 62.5605 23.1147 61.6211 24.0938L61.6211 24.1064ZM55.8926 22.397C56.4004 22.8569 57.0605 23.1113 57.7461 23.1113C58.4316 23.1113 59.0918 22.8569 59.5996 22.397C60.0586 21.8691 60.3125 21.1929 60.3125 20.4932C60.3125 19.7935 60.0586 19.1172 59.5996 18.5894C59.0918 18.1299 58.4316 17.8755 57.7461 17.8755C57.0605 17.8755 56.4004 18.1299 55.8926 18.5894C55.4336 19.1172 55.1797 19.7935 55.1797 20.4932C55.1797 21.1929 55.4336 21.8691 55.8926 22.397Z" fill="#282938" fill-opacity="1.000000" fill-rule="nonzero"/>
		<path id="Vector" d="M75.0742 15.7529C75.3203 15.7529 75.4375 15.8823 75.4375 16.1284L75.4375 25.4146C75.4609 26.041 75.3438 26.665 75.0938 27.2407C74.8457 27.8169 74.4707 28.3296 73.998 28.7432C72.9512 29.6357 71.6035 30.0986 70.2266 30.0381C68.9844 30.0815 67.7578 29.7427 66.7148 29.0669C66.2695 28.7744 65.8887 28.3936 65.5977 27.9478C65.3047 27.5024 65.1074 27.0015 65.0176 26.4766C65.0176 26.2173 65.0176 26.1011 65.3672 26.1011L67.5449 26.1011C67.6367 26.104 67.7266 26.1338 67.8027 26.1865C67.8789 26.2397 67.9375 26.313 67.9727 26.3989C68.1133 26.792 68.3945 27.1196 68.7637 27.3184C69.2109 27.5493 69.7109 27.665 70.2148 27.6553C70.5195 27.6719 70.8242 27.6274 71.1113 27.5254C71.3984 27.4229 71.6621 27.2646 71.8867 27.0596C72.0918 26.8447 72.252 26.5903 72.3574 26.312C72.4609 26.0337 72.5078 25.7373 72.4961 25.4404L72.4961 24.6245C71.7168 25.1973 70.7676 25.4937 69.7988 25.4663C69.123 25.4907 68.4473 25.3784 67.8145 25.1357C67.1816 24.8936 66.6055 24.5254 66.1191 24.0547C65.1836 23.0884 64.6621 21.7974 64.6621 20.4541C64.6621 19.1104 65.1836 17.8198 66.1191 16.8535C66.6074 16.3867 67.1855 16.0225 67.8184 15.7822C68.4492 15.542 69.123 15.4307 69.7988 15.4551C70.7949 15.4287 71.7695 15.7441 72.5605 16.3486L72.5605 16.1411C72.5547 16.0918 72.5605 16.0415 72.5762 15.9941C72.5918 15.9468 72.6172 15.9033 72.6523 15.8672C72.6875 15.8315 72.7305 15.8037 72.7754 15.7861C72.8242 15.7686 72.873 15.7612 72.9238 15.7656L75.0742 15.7529ZM70.0469 23.1611C70.3809 23.1714 70.7129 23.1084 71.0195 22.9761C71.3262 22.8442 71.5996 22.6465 71.8223 22.397C72.252 21.8408 72.4863 21.1572 72.4863 20.4541C72.4863 19.751 72.252 19.0674 71.8223 18.5112C71.5996 18.2651 71.3281 18.0703 71.0234 17.9404C70.7188 17.811 70.3906 17.7495 70.0586 17.7603C69.7207 17.7495 69.3848 17.8125 69.0742 17.9443C68.7637 18.0762 68.4844 18.2744 68.2578 18.5244C67.7793 19.0562 67.5293 19.7529 67.5566 20.4668C67.5332 21.1738 67.7793 21.8633 68.2441 22.397C68.4727 22.646 68.75 22.8438 69.0625 22.9756C69.373 23.1074 69.709 23.1709 70.0469 23.1611Z" fill="#282938" fill-opacity="1.000000" fill-rule="nonzero"/>
		<path id="Vector" d="M86.6211 24.106C85.5234 25.0044 84.1504 25.4956 82.7324 25.4956C81.3145 25.4956 79.9395 25.0044 78.8438 24.106C77.9043 23.1245 77.3789 21.8188 77.3789 20.46C77.3789 19.1016 77.9043 17.7954 78.8438 16.8145C79.9414 15.918 81.3145 15.4282 82.7324 15.4282C84.1504 15.4282 85.5234 15.918 86.6211 16.8145C87.5605 17.7935 88.084 19.0972 88.084 20.4536C88.084 21.8101 87.5605 23.1138 86.6211 24.0928L86.6211 24.106ZM80.8789 22.3965C81.127 22.6323 81.4199 22.8169 81.7402 22.9395C82.0605 23.0615 82.4023 23.1191 82.7461 23.1084C83.0859 23.1172 83.4258 23.0591 83.7422 22.937C84.0605 22.8145 84.3516 22.6309 84.5996 22.3965C85.0508 21.8647 85.2988 21.1899 85.2988 20.4922C85.2988 19.7949 85.0508 19.1201 84.5996 18.5884C84.3516 18.354 84.0605 18.1704 83.7422 18.0479C83.4258 17.9258 83.0859 17.8677 82.7461 17.8765C82.4023 17.8657 82.0605 17.9233 81.7402 18.0454C81.4199 18.168 81.127 18.3525 80.8789 18.5884C80.4277 19.1201 80.1797 19.7949 80.1797 20.4922C80.1797 21.1899 80.4277 21.8647 80.8789 22.3965Z" fill="#282938" fill-opacity="1.000000" fill-rule="nonzero"/>
		<path id="Vector" d="M92.7637 13.5513C92.4219 13.8511 91.9824 14.0161 91.5273 14.0161C91.0703 14.0161 90.6309 13.8511 90.2891 13.5513C90.1328 13.4048 90.0098 13.228 89.9258 13.0322C89.8398 12.8359 89.7969 12.625 89.7969 12.4116C89.7969 12.1982 89.8398 11.9868 89.9258 11.791C90.0098 11.5952 90.1328 11.4185 90.2891 11.272C90.6348 10.9795 91.0742 10.8193 91.5273 10.8193C91.9805 10.8193 92.418 10.9795 92.7637 11.272C92.9199 11.4185 93.043 11.5952 93.1289 11.791C93.2129 11.9868 93.2559 12.1982 93.2559 12.4116C93.2559 12.625 93.2129 12.8359 93.1289 13.0322C93.043 13.228 92.9199 13.4048 92.7637 13.5513ZM93.0371 25.4927C92.2656 25.5303 91.5039 25.3115 90.8711 24.8706C90.6113 24.6724 90.4043 24.415 90.2637 24.1201C90.125 23.8247 90.0566 23.5005 90.0684 23.1743L90.0684 16.1284C90.0625 16.0776 90.0684 16.0264 90.084 15.9775C90.1016 15.9292 90.1289 15.8853 90.1641 15.8491C90.2012 15.813 90.2441 15.7856 90.293 15.7686C90.3418 15.752 90.3926 15.7466 90.4434 15.7529L92.6211 15.7529C92.8672 15.7529 92.9844 15.8823 92.9844 16.1284L92.9844 22.2417C92.9844 22.7339 93.2051 22.98 93.6465 22.98C93.8418 22.9868 94.0391 22.9653 94.2285 22.915C94.4883 22.915 94.6309 22.9927 94.6445 23.2261L94.8379 24.8447C94.8477 24.8921 94.8457 24.9409 94.8359 24.9878C94.8242 25.0342 94.8027 25.0781 94.7734 25.1162C94.7441 25.1543 94.707 25.1855 94.6641 25.208C94.6211 25.2305 94.5742 25.2437 94.5273 25.2466C94.0449 25.4048 93.543 25.4878 93.0371 25.4927Z" fill="#282938" fill-opacity="1.000000" fill-rule="nonzero"/>
		<path id="Vector" d="M102.85 15.4419C103.529 15.415 104.207 15.5249 104.844 15.7651C105.482 16.0059 106.062 16.3716 106.557 16.8408C107.473 17.8237 107.982 19.1172 107.982 20.4604C107.982 21.8042 107.473 23.0977 106.557 24.0806C106.066 24.5542 105.486 24.9233 104.848 25.166C104.211 25.4087 103.531 25.5195 102.85 25.4922C101.879 25.5137 100.928 25.2183 100.141 24.6504L100.141 29.3257C100.141 29.5718 100.012 29.6885 99.7656 29.6885L97.5879 29.6885C97.5371 29.6978 97.4863 29.6948 97.4375 29.6797C97.3906 29.665 97.3457 29.6387 97.3105 29.6025C97.2754 29.5669 97.248 29.5229 97.2324 29.4751C97.2188 29.4268 97.2148 29.3755 97.2246 29.3257L97.2246 18.7056C97.2402 18.6021 97.2305 18.4961 97.1973 18.396C97.1641 18.2964 97.1094 18.2061 97.0352 18.1318C96.9609 18.0576 96.8691 18.0015 96.7695 17.9688C96.6699 17.9355 96.5645 17.9263 96.4609 17.9414L96.0332 17.9414C95.748 17.9414 95.6055 17.8379 95.6055 17.6309L95.6055 16.1025C95.5977 16.0078 95.623 15.9141 95.6777 15.8359C95.7324 15.7583 95.8125 15.7017 95.9023 15.6753C96.3516 15.5122 96.8262 15.4331 97.3027 15.4419C97.7773 15.3999 98.2559 15.5005 98.6738 15.7314C99.0918 15.9624 99.4316 16.3125 99.6484 16.7373C100.066 16.3149 100.564 15.9824 101.115 15.7598C101.666 15.5371 102.256 15.4292 102.85 15.4419ZM100.828 22.397C101.059 22.6382 101.336 22.8301 101.645 22.9614C101.951 23.0928 102.281 23.1602 102.617 23.1602C102.951 23.1602 103.281 23.0928 103.588 22.9614C103.896 22.8301 104.174 22.6382 104.404 22.397C104.893 21.8545 105.148 21.1436 105.117 20.4155C105.152 19.6865 104.895 18.9741 104.404 18.4336C104.174 18.1924 103.896 18.0005 103.588 17.8691C103.281 17.7378 102.951 17.6704 102.617 17.6704C102.281 17.6704 101.951 17.7378 101.645 17.8691C101.336 18.0005 101.059 18.1924 100.828 18.4336C100.355 18.9834 100.111 19.6919 100.141 20.4155C100.115 21.1382 100.359 21.8452 100.828 22.397Z" fill="#282938" fill-opacity="1.000000" fill-rule="nonzero"/>
		<path id="Vector" d="M114.098 25.4922C112.936 25.54 111.781 25.2617 110.768 24.689C110.359 24.4443 110.014 24.1113 109.754 23.7144C109.494 23.3174 109.326 22.8672 109.264 22.397C109.264 22.1377 109.355 22.0083 109.639 22.0083L111.545 22.0083C111.635 22.0117 111.725 22.04 111.799 22.0903C111.875 22.1406 111.934 22.2109 111.973 22.293C112.244 22.9927 112.957 23.3423 114.098 23.3423C114.496 23.3604 114.893 23.2803 115.252 23.1089C115.375 23.0532 115.482 22.9644 115.561 22.8525C115.637 22.7407 115.684 22.6104 115.693 22.4746C115.693 22.1377 115.484 21.9048 115.07 21.749C114.578 21.5854 114.068 21.4771 113.555 21.4253C112.943 21.3564 112.338 21.248 111.74 21.1016C111.158 20.9702 110.631 20.668 110.223 20.2339C109.984 19.939 109.807 19.5977 109.705 19.2314C109.602 18.8652 109.576 18.4819 109.629 18.1055C109.68 17.729 109.811 17.3672 110.008 17.0425C110.207 16.7178 110.469 16.4375 110.781 16.2188C111.715 15.624 112.811 15.3345 113.916 15.3901C114.988 15.354 116.049 15.6187 116.975 16.1543C117.35 16.3657 117.672 16.6582 117.918 17.0098C118.164 17.3618 118.33 17.7642 118.402 18.1875C118.402 18.4463 118.285 18.5762 118.051 18.5762L116.133 18.5762C116.053 18.5811 115.973 18.561 115.902 18.5195C115.834 18.478 115.777 18.4165 115.744 18.3428C115.615 18.0361 115.375 17.7905 115.07 17.6567C114.727 17.4771 114.344 17.3877 113.955 17.3975C113.576 17.377 113.197 17.4526 112.854 17.6177C112.732 17.6641 112.629 17.7456 112.557 17.8521C112.482 17.9585 112.441 18.084 112.439 18.2134C112.447 18.3906 112.512 18.5605 112.625 18.6978C112.736 18.8354 112.889 18.9336 113.061 18.9775C113.559 19.165 114.076 19.2954 114.604 19.3662C115.211 19.4458 115.811 19.5581 116.406 19.7026C116.986 19.834 117.514 20.1362 117.922 20.5708C118.141 20.8096 118.309 21.0898 118.416 21.394C118.525 21.6987 118.572 22.022 118.557 22.3447C118.568 22.7925 118.463 23.2354 118.252 23.6304C118.041 24.0254 117.73 24.3589 117.352 24.5986C116.383 25.2197 115.248 25.5312 114.098 25.4922Z" fill="#282938" fill-opacity="1.000000" fill-rule="nonzero"/>
		<path id="Vector" d="M132.258 24.8447C132.264 24.8906 132.262 24.938 132.252 24.9829C132.24 25.0283 132.221 25.0708 132.191 25.1084C132.164 25.1455 132.129 25.1772 132.09 25.2007C132.049 25.2246 132.006 25.2402 131.959 25.2461C131.486 25.4009 130.992 25.4834 130.494 25.4922C130.002 25.5435 129.504 25.4663 129.051 25.269C128.596 25.0718 128.201 24.7607 127.902 24.3657C126.986 25.1523 125.803 25.5557 124.598 25.4922C124.037 25.5181 123.479 25.4268 122.955 25.2236C122.434 25.0205 121.959 24.7109 121.564 24.314C121.172 23.8979 120.867 23.4072 120.67 22.8706C120.471 22.3345 120.383 21.7637 120.412 21.1924L120.412 16.1284C120.412 15.8823 120.527 15.7529 120.773 15.7529L122.951 15.7529C123.197 15.7529 123.314 15.8823 123.314 16.1284L123.314 20.8042C123.291 21.3867 123.49 21.9561 123.871 22.397C124.062 22.5991 124.293 22.7578 124.551 22.8628C124.809 22.9678 125.084 23.0166 125.361 23.0059C125.646 23.0181 125.93 22.9741 126.197 22.8765C126.463 22.7788 126.709 22.6289 126.918 22.436C127.115 22.2324 127.268 21.9907 127.369 21.7256C127.469 21.4604 127.514 21.1777 127.5 20.8945L127.5 16.1284C127.5 15.8823 127.617 15.7529 127.863 15.7529L130.066 15.7529C130.312 15.7529 130.43 15.8823 130.43 16.1284L130.43 22.2285C130.43 22.7339 130.65 22.98 131.078 22.98C131.279 22.9878 131.48 22.9658 131.674 22.915C131.723 22.9014 131.773 22.8989 131.824 22.9077C131.875 22.917 131.922 22.937 131.963 22.9668C132.004 22.9971 132.039 23.0356 132.062 23.0806C132.086 23.1255 132.1 23.1753 132.102 23.2261L132.258 24.8447Z" fill="#282938" fill-opacity="1.000000" fill-rule="nonzero"/>
		<path id="Vector" d="M152.852 24.8452C152.861 24.8916 152.863 24.9399 152.854 24.9868C152.844 25.0337 152.824 25.0776 152.797 25.1162C152.768 25.1548 152.732 25.186 152.689 25.2085C152.646 25.2314 152.6 25.2441 152.553 25.2466C152.07 25.4033 151.568 25.4863 151.062 25.4927C150.291 25.5322 149.529 25.3135 148.896 24.8711C148.625 24.6816 148.402 24.4272 148.25 24.1313C148.1 23.8354 148.023 23.5068 148.029 23.1743L148.029 20.1309C148.057 19.5503 147.861 18.9805 147.484 18.5381C147.303 18.3354 147.078 18.1758 146.828 18.0703C146.576 17.9653 146.305 17.917 146.033 17.9292C145.787 17.9199 145.543 17.9663 145.32 18.0649C145.096 18.1636 144.896 18.312 144.738 18.499C144.395 18.9331 144.221 19.4756 144.244 20.0273L144.244 24.8062C144.244 25.0522 144.127 25.1816 143.883 25.1816L141.691 25.1816C141.641 25.188 141.59 25.1826 141.539 25.166C141.492 25.1494 141.447 25.1221 141.412 25.0859C141.375 25.0498 141.348 25.0054 141.332 24.957C141.314 24.9087 141.309 24.8569 141.314 24.8062L141.314 20.1309C141.344 19.5566 141.164 18.9912 140.811 18.5381C140.652 18.3477 140.453 18.1943 140.23 18.0889C140.006 17.9839 139.762 17.9292 139.514 17.9292C139.25 17.9185 138.986 17.9639 138.74 18.062C138.494 18.1602 138.273 18.3091 138.088 18.499C137.719 18.9189 137.527 19.4678 137.557 20.0273L137.557 24.8062C137.562 24.8569 137.559 24.9087 137.541 24.957C137.523 25.0054 137.498 25.0498 137.461 25.0859C137.424 25.1221 137.381 25.1494 137.332 25.166C137.283 25.1826 137.232 25.188 137.182 25.1816L135.068 25.1816C134.822 25.1816 134.705 25.0522 134.705 24.8062L134.705 18.7061C134.721 18.6025 134.711 18.4966 134.678 18.3965C134.646 18.2969 134.59 18.2065 134.516 18.1323C134.441 18.0581 134.35 18.002 134.25 17.9692C134.15 17.936 134.045 17.9268 133.941 17.9419L133.514 17.9419C133.229 17.9419 133.084 17.8384 133.084 17.6313L133.084 16.103C133.078 16.0083 133.104 15.9146 133.158 15.8364C133.213 15.7588 133.293 15.7021 133.383 15.6758C133.832 15.5127 134.307 15.4336 134.783 15.4424C135.242 15.4033 135.701 15.4946 136.109 15.7056C136.516 15.9165 136.857 16.2383 137.09 16.6338C137.527 16.2197 138.045 15.9004 138.613 15.6953C139.178 15.4902 139.781 15.4043 140.383 15.4424C140.967 15.4141 141.549 15.5234 142.082 15.7622C142.615 16.0005 143.086 16.3613 143.453 16.8154C143.883 16.3496 144.41 15.9849 144.998 15.7471C145.584 15.5098 146.217 15.4058 146.85 15.4424C147.416 15.416 147.98 15.5073 148.51 15.71C149.037 15.9126 149.518 16.2231 149.922 16.6211C150.314 17.0361 150.621 17.5269 150.818 18.0635C151.018 18.6001 151.104 19.1709 151.076 19.7422L151.076 22.2417C151.076 22.7339 151.295 22.98 151.709 22.98C151.91 22.9897 152.113 22.9678 152.307 22.9155C152.574 22.9155 152.717 23.019 152.734 23.2261L152.852 24.8452Z" fill="#282938" fill-opacity="1.000000" fill-rule="nonzero"/>
		<path id="Vector" d="M0.873047 14.0698C1.83008 10.2295 4.04297 6.81885 7.16406 4.38135C10.2852 1.94434 14.1309 0.620117 18.0918 0.620117C22.0527 0.620117 25.8984 1.94434 29.0195 4.38135C32.1387 6.81885 34.3535 10.2295 35.3105 14.0698L33.7539 14.0698C31.1309 14.0312 28.5605 14.8149 26.4062 16.3105C26.2812 16.4004 26.1523 16.4824 26.0176 16.5566L25.8359 16.5566C25.7012 16.4824 25.5703 16.4004 25.4473 16.3105C23.2734 14.8491 20.7109 14.0688 18.0918 14.0688C15.4707 14.0688 12.9102 14.8491 10.7363 16.3105C10.6113 16.4004 10.4824 16.4824 10.3477 16.5566L10.166 16.5566C10.0312 16.4824 9.90234 16.4004 9.77734 16.3105C7.62109 14.8149 5.05273 14.0312 2.42773 14.0698L0.873047 14.0698ZM30.9551 22.1904C31.7539 21.5688 32.7422 21.2441 33.7539 21.271L35.8418 21.271L35.8418 17.1133L33.7539 17.1133C31.9727 17.0918 30.2324 17.646 28.791 18.6934C27.9805 19.291 26.998 19.6133 25.9902 19.6133C24.9844 19.6133 24.002 19.291 23.1914 18.6934C21.7148 17.6655 19.957 17.1147 18.1562 17.1147C16.3555 17.1147 14.5996 17.6655 13.1211 18.6934C12.3105 19.291 11.3281 19.6133 10.3223 19.6133C9.31445 19.6133 8.33203 19.291 7.52148 18.6934C6.0625 17.6328 4.29688 17.0776 2.49414 17.1133L0.341797 17.1133L0.341797 21.271L2.42773 21.271C3.43945 21.2441 4.42969 21.5688 5.22852 22.1904C6.70312 23.2188 8.45898 23.7705 10.2559 23.7705C12.0547 23.7705 13.8105 23.2188 15.2852 22.1904C16.0859 21.5708 17.0742 21.2461 18.0859 21.271C19.0977 21.2417 20.0879 21.5669 20.8848 22.1904C22.3613 23.2183 24.1191 23.769 25.9199 23.769C27.7207 23.769 29.4766 23.2183 30.9551 22.1904ZM30.9551 29.6245C31.7539 29.0029 32.7422 28.6782 33.7539 28.7051L35.8418 28.7051L35.8418 24.5474L33.7539 24.5474C31.9727 24.5259 30.2324 25.0801 28.791 26.1274C27.9805 26.7251 26.998 27.0474 25.9902 27.0474C24.9844 27.0474 24.002 26.7251 23.1914 26.1274C21.7148 25.0996 19.957 24.5488 18.1562 24.5488C16.3555 24.5488 14.5996 25.0996 13.1211 26.1274C12.3105 26.7251 11.3281 27.0474 10.3223 27.0474C9.31445 27.0474 8.33203 26.7251 7.52148 26.1274C6.0625 25.0669 4.29688 24.5117 2.49414 24.5474L0.341797 24.5474L0.341797 28.7051L2.42773 28.7051C3.43945 28.6782 4.42969 29.0029 5.22852 29.6245C6.70312 30.6528 8.45898 31.2046 10.2559 31.2046C12.0547 31.2046 13.8105 30.6528 15.2852 29.6245C16.0859 29.0049 17.0742 28.6802 18.0859 28.7051C19.0977 28.6758 20.0879 29.001 20.8848 29.6245C22.3613 30.6523 24.1191 31.2031 25.9199 31.2031C27.7207 31.2031 29.4766 30.6523 30.9551 29.6245Z" fill="#282938" fill-opacity="1.000000" fill-rule="nonzero"/>
	</g>
</svg>
