<svg width="136.000000" height="52.000000" viewBox="0 0 136 52" fill="none" xmlns="http://www.w3.org/2000/svg" xmlns:xlink="http://www.w3.org/1999/xlink">
	<desc>
			Created with Pixso.
	</desc>
	<defs/>
	<g opacity="0.600000">
		<path id="We are" d="M3.08301 15L4.35449 15L6.60352 6.88574L6.68213 6.88574L8.92773 15L10.2026 15L12.9849 4.81787L11.7339 4.81787L9.60449 13.1099L9.50537 13.1099L7.33838 4.81787L5.94727 4.81787L3.77686 13.1099L3.67773 13.1099L1.55176 4.81787L0.297363 4.81787L3.08301 15ZM16.8441 15.1606C18.3958 15.1606 19.5272 14.3848 19.8861 13.2295L18.7513 12.9116C18.4539 13.708 17.7635 14.1045 16.8441 14.1045C15.4666 14.1045 14.5164 13.2158 14.4617 11.5786L20.0057 11.5786L20.0057 11.083C20.0057 8.23926 18.3138 7.26514 16.7244 7.26514C14.6566 7.26514 13.2825 8.89551 13.2825 11.2402C13.2825 13.5884 14.6361 15.1606 16.8441 15.1606ZM14.4617 10.5669C14.5403 9.37744 15.3812 8.31787 16.7244 8.31787C17.9959 8.31787 18.8128 9.27148 18.8128 10.5669L14.4617 10.5669ZM27.9814 15.1777C29.3109 15.1777 30.0082 14.4634 30.2475 13.9644L30.3056 13.9644L30.3056 15L31.4814 15L31.4814 9.96875C31.4814 7.54199 29.6322 7.26514 28.6547 7.26514C27.5028 7.26514 26.1903 7.66162 25.5922 9.05273L26.7065 9.45264C26.9662 8.89551 27.578 8.29736 28.6957 8.29736C29.7758 8.29736 30.3056 8.87158 30.3056 9.84912L30.3056 9.89014C30.3056 10.4575 29.7314 10.4062 28.3368 10.584C26.9218 10.7686 25.3734 11.083 25.3734 12.833C25.3734 14.3232 26.5287 15.1777 27.9814 15.1777ZM28.1591 14.125C27.226 14.125 26.5492 13.708 26.5492 12.8911C26.5492 11.9956 27.3627 11.7188 28.2787 11.5991C28.7743 11.541 30.1073 11.4009 30.3056 11.1616L30.3056 12.2349C30.3056 13.1919 29.5502 14.125 28.1591 14.125ZM33.6272 15L34.7996 15L34.7996 10.167C34.7996 9.13477 35.6165 8.37939 36.7307 8.37939C37.0418 8.37939 37.3665 8.4375 37.4451 8.45801L37.4451 7.26514C37.3118 7.25488 37.0042 7.24463 36.8299 7.24463C35.9138 7.24463 35.1209 7.76074 34.8406 8.51611L34.762 8.51611L34.762 7.36426L33.6272 7.36426L33.6272 15ZM41.8014 15.1606C43.3532 15.1606 44.4846 14.3848 44.8434 13.2295L43.7087 12.9116C43.4113 13.708 42.7209 14.1045 41.8014 14.1045C40.424 14.1045 39.4738 13.2158 39.4191 11.5786L44.9631 11.5786L44.9631 11.083C44.9631 8.23926 43.2712 7.26514 41.6818 7.26514C39.6139 7.26514 38.2399 8.89551 38.2399 11.2402C38.2399 13.5884 39.5934 15.1606 41.8014 15.1606ZM39.4191 10.5669C39.4977 9.37744 40.3386 8.31787 41.6818 8.31787C42.9533 8.31787 43.7702 9.27148 43.7702 10.5669L39.4191 10.5669Z" fill="#6D6E76" fill-opacity="1.000000" fill-rule="evenodd"/>
	</g>
	<path id="Featured in" d="M11.7656 35.2969L11.7656 38.2266L5.60156 38.2266L5.60156 44.1094L2.34375 44.1094L2.34375 28.4062L13.0547 28.4062L13.0547 31.3359L5.60156 31.3359L5.60156 35.2969L11.7656 35.2969ZM21.8906 31.9688C23.0469 31.9688 24.0391 32.2188 24.8672 32.7188C25.7109 33.2188 26.3516 33.9141 26.7891 34.8047C27.2422 35.6797 27.4688 36.6953 27.4688 37.8516L27.4688 39.1172L18.8906 39.1172C19.0469 39.9141 19.4375 40.5547 20.0625 41.0391C20.6875 41.5234 21.4531 41.7656 22.3594 41.7656C23.2188 41.7656 24 41.5938 24.7031 41.25C25.4062 40.9062 25.9688 40.5547 26.3906 40.1953L26.3672 42.9609C25.9922 43.2891 25.4297 43.625 24.6797 43.9688C23.9453 44.2969 23.1328 44.4609 22.2422 44.4609C21.0703 44.4609 20 44.1953 19.0312 43.6641C18.0781 43.1328 17.3125 42.4062 16.7344 41.4844C16.1719 40.5625 15.8906 39.5078 15.8906 38.3203C15.8906 37.1641 16.1484 36.1094 16.6641 35.1562C17.1797 34.2031 17.8906 33.4375 18.7969 32.8594C19.7031 32.2656 20.7344 31.9688 21.8906 31.9688ZM21.8203 34.5703C21.0859 34.5703 20.4688 34.7969 19.9688 35.25C19.4688 35.7031 19.125 36.3125 18.9375 37.0781L24.6094 37.0781C24.5469 36.2344 24.2344 35.6094 23.6719 35.2031C23.1094 34.7812 22.4922 34.5703 21.8203 34.5703ZM34.875 31.9688C35.5156 31.9688 36.1641 32.1172 36.8203 32.4141C37.4766 32.7109 38.0234 33.1094 38.4609 33.6094L38.4609 32.2734L41.4375 32.2734L41.4375 44.1094L38.4609 44.1094L38.4609 42.1172C38.1172 42.7578 37.6172 43.3125 36.9609 43.7812C36.3047 44.2344 35.5391 44.4609 34.6641 44.4609C33.7109 44.4609 32.8281 44.2188 32.0156 43.7344C31.2188 43.25 30.5781 42.5469 30.0938 41.625C29.6094 40.7031 29.3672 39.5859 29.3672 38.2734C29.3672 36.9609 29.6094 35.8359 30.0938 34.8984C30.5938 33.9609 31.2578 33.2422 32.0859 32.7422C32.9297 32.2266 33.8594 31.9688 34.875 31.9688ZM35.4844 34.875C34.8594 34.875 34.3203 35.0391 33.8672 35.3672C33.4297 35.6797 33.0859 36.0938 32.8359 36.6094C32.5859 37.125 32.4609 37.6797 32.4609 38.2734C32.4609 39.1641 32.7266 39.9219 33.2578 40.5469C33.8047 41.1719 34.5234 41.4844 35.4141 41.4844C35.9453 41.4844 36.4375 41.3438 36.8906 41.0625C37.3594 40.7812 37.7344 40.3906 38.0156 39.8906C38.3125 39.375 38.4609 38.7578 38.4609 38.0391L38.4609 36.3516C38.0391 35.8984 37.5781 35.5391 37.0781 35.2734C36.5938 35.0078 36.0625 34.875 35.4844 34.875ZM49.3828 28.8281L49.3828 32.2734L52.6641 32.2734L52.6641 34.7578L49.3828 34.7578L49.3828 39.8672C49.3828 40.3984 49.5 40.8203 49.7344 41.1328C49.9844 41.4297 50.3516 41.5781 50.8359 41.5781C51.2578 41.5781 51.6172 41.5312 51.9141 41.4375C52.2266 41.3438 52.5156 41.2109 52.7812 41.0391L52.7812 43.4062C52.4844 43.7031 52.1094 43.9531 51.6562 44.1562C51.2188 44.3594 50.6641 44.4609 49.9922 44.4609C48.9297 44.4609 48.0625 44.125 47.3906 43.4531C46.7344 42.7656 46.4062 41.8281 46.4062 40.6406L46.4062 34.7578L44.2734 34.7578L44.2734 33.2344C45.0234 32.9688 45.7109 32.4688 46.3359 31.7344C46.9766 31 47.4844 30.0312 47.8594 28.8281L49.3828 28.8281ZM66.2812 32.2734L66.2812 39.3281C66.2812 40.375 66.0469 41.2812 65.5781 42.0469C65.1094 42.7969 64.4688 43.375 63.6562 43.7812C62.8594 44.1875 61.9531 44.3906 60.9375 44.3906C59.9062 44.3906 58.9844 44.1875 58.1719 43.7812C57.375 43.375 56.7422 42.7969 56.2734 42.0469C55.8203 41.2812 55.5938 40.375 55.5938 39.3281L55.5938 32.2734L58.5938 32.2734L58.6172 38.7891C58.6172 39.7109 58.8281 40.3984 59.25 40.8516C59.6719 41.3047 60.2344 41.5312 60.9375 41.5312C61.625 41.5312 62.1797 41.3047 62.6016 40.8516C63.0391 40.3984 63.2578 39.7109 63.2578 38.7891L63.2578 32.2734L66.2812 32.2734ZM77.1328 35.6016C76.6328 35.3203 76.1094 35.1797 75.5625 35.1797C74.875 35.1797 74.3047 35.4062 73.8516 35.8594C73.3984 36.2969 73 36.8438 72.6562 37.5L72.6562 44.1094L69.6797 44.1094L69.6797 32.2734L72.6562 32.2734L72.6562 34.5C73.0625 33.7969 73.5391 33.2109 74.0859 32.7422C74.6484 32.2734 75.2812 32.0391 75.9844 32.0391C76.4062 32.0391 76.7891 32.1094 77.1328 32.25L77.1328 35.6016ZM84.6094 31.9688C85.7656 31.9688 86.7578 32.2188 87.5859 32.7188C88.4297 33.2188 89.0703 33.9141 89.5078 34.8047C89.9609 35.6797 90.1875 36.6953 90.1875 37.8516L90.1875 39.1172L81.6094 39.1172C81.7656 39.9141 82.1562 40.5547 82.7812 41.0391C83.4062 41.5234 84.1719 41.7656 85.0781 41.7656C85.9375 41.7656 86.7188 41.5938 87.4219 41.25C88.125 40.9062 88.6875 40.5547 89.1094 40.1953L89.0859 42.9609C88.7109 43.2891 88.1484 43.625 87.3984 43.9688C86.6641 44.2969 85.8516 44.4609 84.9609 44.4609C83.7891 44.4609 82.7188 44.1953 81.75 43.6641C80.7969 43.1328 80.0312 42.4062 79.4531 41.4844C78.8906 40.5625 78.6094 39.5078 78.6094 38.3203C78.6094 37.1641 78.8672 36.1094 79.3828 35.1562C79.8984 34.2031 80.6094 33.4375 81.5156 32.8594C82.4219 32.2656 83.4531 31.9688 84.6094 31.9688ZM84.5391 34.5703C83.8047 34.5703 83.1875 34.7969 82.6875 35.25C82.1875 35.7031 81.8438 36.3125 81.6562 37.0781L87.3281 37.0781C87.2656 36.2344 86.9531 35.6094 86.3906 35.2031C85.8281 34.7812 85.2109 34.5703 84.5391 34.5703ZM104.156 27.2344L104.156 44.1094L101.18 44.1094L101.18 42.1172C100.836 42.7578 100.336 43.3125 99.6797 43.7812C99.0234 44.2344 98.2578 44.4609 97.3828 44.4609C96.4297 44.4609 95.5469 44.2188 94.7344 43.7344C93.9375 43.25 93.2969 42.5469 92.8125 41.625C92.3281 40.7031 92.0859 39.5859 92.0859 38.2734C92.0859 36.9609 92.3281 35.8359 92.8125 34.8984C93.3125 33.9609 93.9766 33.2422 94.8047 32.7422C95.6484 32.2266 96.5781 31.9688 97.5938 31.9688C98.2344 31.9688 98.8828 32.1172 99.5391 32.4141C100.195 32.7109 100.742 33.1094 101.18 33.6094L101.18 27.2344L104.156 27.2344ZM98.2031 34.8984C97.5781 34.8984 97.0391 35.0625 96.5859 35.3906C96.1484 35.7031 95.8047 36.1172 95.5547 36.6328C95.3047 37.1328 95.1797 37.6797 95.1797 38.2734C95.1797 39.1641 95.4453 39.9219 95.9766 40.5469C96.5234 41.1719 97.2422 41.4844 98.1328 41.4844C98.6641 41.4844 99.1562 41.3438 99.6094 41.0625C100.078 40.7812 100.453 40.3906 100.734 39.8906C101.031 39.375 101.18 38.7578 101.18 38.0391L101.18 36.3516C100.758 35.8984 100.297 35.5469 99.7969 35.2969C99.3125 35.0312 98.7812 34.8984 98.2031 34.8984ZM117.328 26.1094C117.891 26.1094 118.375 26.3125 118.781 26.7188C119.188 27.1094 119.391 27.5781 119.391 28.125C119.391 28.6562 119.188 29.125 118.781 29.5312C118.375 29.9375 117.891 30.1406 117.328 30.1406C116.766 30.1406 116.281 29.9375 115.875 29.5312C115.484 29.125 115.289 28.6562 115.289 28.125C115.289 27.5781 115.484 27.1094 115.875 26.7188C116.281 26.3125 116.766 26.1094 117.328 26.1094ZM119.062 32.2734L119.062 44.1094L116.086 44.1094L116.086 34.8047L114.188 34.8047L114.188 32.2734L119.062 32.2734ZM125.789 32.2734L125.789 33.9609C126.148 33.4766 126.633 33.0234 127.242 32.6016C127.867 32.1797 128.578 31.9688 129.375 31.9688C130.578 31.9688 131.586 32.375 132.398 33.1875C133.211 34 133.617 35.2188 133.617 36.8438L133.617 44.1094L130.641 44.1094L130.617 37.2422C130.617 36.4453 130.422 35.8516 130.031 35.4609C129.656 35.0703 129.133 34.875 128.461 34.875C127.93 34.875 127.43 35.0469 126.961 35.3906C126.508 35.7344 126.117 36.1406 125.789 36.6094L125.789 44.1094L122.812 44.1094L122.812 32.2734L125.789 32.2734Z" fill="#6D6E76" fill-opacity="1.000000" fill-rule="evenodd"/>
</svg>
