<svg width="140.000000" height="28.354492" viewBox="0 0 140 28.3545" fill="none" xmlns="http://www.w3.org/2000/svg" xmlns:xlink="http://www.w3.org/1999/xlink">
	<desc>
			Created with Pixso.
	</desc>
	<defs>
		<clipPath id="clip2_516">
			<rect width="140.000000" height="28.354429" fill="white" fill-opacity="0"/>
		</clipPath>
	</defs>
	<rect width="140.000000" height="28.354429" fill="#FFFFFF" fill-opacity="0"/>
	<g clip-path="url(#clip2_516)">
		<path d="M139.752 21.6558L139.752 25.1204L136.846 25.1204C133.744 25.0229 132.088 23.3481 132.088 20.2026L132.088 12.2898L130.059 12.2898L130.059 9.25073L132.088 9.25073L132.088 5.84814L136.377 5.84814L136.377 9.21533L139.654 9.21533L139.654 12.2456L136.377 12.2456L136.377 19.7773C136.377 20.7961 136.58 21.6113 138.148 21.6113L139.752 21.6558Z" fill="#FFFFFF" fill-opacity="1.000000" fill-rule="nonzero"/>
		<path d="M112.965 17.2166L112.965 16.9861C112.918 15.967 113.074 14.9487 113.422 13.9897C113.77 13.0308 114.303 12.1499 114.992 11.3975C115.682 10.645 116.512 10.0361 117.438 9.60547C118.361 9.17456 119.361 8.93066 120.381 8.88745C120.586 8.88745 120.799 8.88745 121.002 8.88745C125.051 8.88745 128.604 11.2444 128.604 16.8621L128.604 18.0583L117.352 18.0583C117.467 20.6458 118.867 22.1077 121.223 22.1077C123.252 22.1077 124.201 21.2217 124.475 19.928L128.525 19.928C128.029 23.304 125.334 25.1824 121.072 25.1824C116.395 25.147 112.965 22.1875 112.965 17.2166ZM124.387 15.3469C124.236 12.99 123.049 11.8557 120.984 11.8557C118.92 11.8557 117.732 13.1318 117.439 15.3469L124.387 15.3469Z" fill="#FFFFFF" fill-opacity="1.000000" fill-rule="nonzero"/>
		<path d="M95.457 17.2166L95.457 16.9861C95.4102 15.9685 95.5664 14.9517 95.9121 13.9937C96.2598 13.0359 96.791 12.1558 97.4785 11.4036C98.166 10.6514 98.9941 10.042 99.916 9.61035C100.84 9.17871 101.838 8.93286 102.855 8.88745C103.061 8.88745 103.271 8.88745 103.477 8.88745C107.525 8.88745 111.088 11.2444 111.088 16.8621L111.088 18.0583L99.8438 18.0583C99.959 20.6458 101.359 22.1077 103.715 22.1077C105.744 22.1077 106.693 21.2217 106.967 19.928L111.018 19.928C110.512 23.304 107.818 25.1824 103.557 25.1824C98.8867 25.147 95.457 22.1875 95.457 17.2166ZM106.879 15.3469C106.729 12.99 105.541 11.8557 103.477 11.8557C101.412 11.8557 100.26 13.1672 99.9316 15.3381L106.879 15.3469Z" fill="#FFFFFF" fill-opacity="1.000000" fill-rule="nonzero"/>
		<path d="M70.8867 9.21509L75.4238 9.21509L78.1973 19.7239L81.2363 9.21509L84.7812 9.21509L87.5273 19.7239L90.4512 9.21509L94.6074 9.21509L89.6797 24.8276L85.4277 24.8276L82.7695 15.0278L79.9238 24.8276L75.6191 24.8276L70.8867 9.21509Z" fill="#FFFFFF" fill-opacity="1.000000" fill-rule="nonzero"/>
		<path d="M56.4688 19.9189L60.5176 19.9189C60.7051 21.3276 61.4043 22.134 63.2656 22.134C64.9316 22.134 65.7012 21.5049 65.7012 20.4329C65.7012 19.3606 64.8164 18.9087 62.5469 18.5898C58.3906 17.9607 56.7871 16.7644 56.7871 13.7163C56.7871 10.4644 59.7656 8.85181 62.9902 8.85181C66.4551 8.85181 69.0684 10.1101 69.4414 13.6987L65.4453 13.6987C65.4199 13.4211 65.3398 13.1516 65.209 12.9053C65.0781 12.6592 64.9004 12.4412 64.6855 12.2639C64.4707 12.0869 64.2227 11.9541 63.9551 11.8733C63.6895 11.7925 63.4102 11.7654 63.1328 11.7935L63 11.7935C61.5996 11.7935 60.7832 12.4492 60.7832 13.4062C60.7832 14.3633 61.5371 14.7795 63.8223 15.1074C67.7051 15.6924 69.875 16.6758 69.875 20.0164C69.875 23.3569 67.4199 25.1467 63.3086 25.1467C59.1973 25.1467 56.584 23.2949 56.4688 19.9189Z" fill="#FFFFFF" fill-opacity="1.000000" fill-rule="nonzero"/>
		<path d="M39.2617 9.21509L43.5508 9.21509L43.5508 11.6873C44.0332 10.7798 44.7676 10.0303 45.6641 9.52783C46.5605 9.02515 47.584 8.79053 48.6094 8.85181C51.6484 8.85181 53.8555 10.7039 53.8555 14.9304L53.8555 24.8633L49.6191 24.8633L49.6191 15.5505C49.6191 13.4329 48.7949 12.4229 46.8828 12.4229C46.4766 12.3875 46.0703 12.4326 45.6836 12.5552C45.2949 12.678 44.9375 12.8757 44.627 13.1377C44.3164 13.3994 44.0605 13.72 43.875 14.0808C43.6875 14.4417 43.5742 14.8357 43.541 15.2405C43.5195 15.429 43.5195 15.6191 43.541 15.8076L43.541 24.8279L39.2617 24.8279L39.2617 9.21509Z" fill="#FFFFFF" fill-opacity="1.000000" fill-rule="nonzero"/>
		<path d="M30.9863 5.28979C30.9707 4.8623 31.082 4.4397 31.3066 4.07568C31.5312 3.71143 31.8594 3.42236 32.248 3.24463C32.6367 3.06689 33.0703 3.00879 33.4941 3.07739C33.916 3.146 34.3086 3.33838 34.6211 3.63013C34.9336 3.92188 35.1523 4.30005 35.252 4.71655C35.3496 5.13306 35.3203 5.56934 35.1719 5.96997C35.0215 6.37061 34.7559 6.71777 34.4082 6.96729C34.0605 7.21704 33.6465 7.35791 33.2188 7.37207L33.1387 7.37207C32.873 7.38892 32.6074 7.35327 32.3555 7.26685C32.1035 7.18066 31.873 7.04541 31.6738 6.86938C31.4746 6.69312 31.3105 6.47949 31.1953 6.24023C31.0781 6.00122 31.0098 5.74146 30.9941 5.47607C30.9863 5.41431 30.9844 5.35205 30.9863 5.28979ZM30.9863 9.21509L35.3184 9.21509L35.3184 24.8279L31.0039 24.8279L30.9863 9.21509Z" fill="#FFFFFF" fill-opacity="1.000000" fill-rule="nonzero"/>
		<path d="M14.6562 3.49121L28.3555 3.49121L28.3555 7.27466L19.4941 7.27466L19.4941 12.9189L26.5117 12.9189L26.5117 16.5608L19.4863 16.5608L19.4863 24.8279L14.6562 24.8279L14.6562 3.49121Z" fill="#FFFFFF" fill-opacity="1.000000" fill-rule="nonzero"/>
		<path d="M6.38867 10.4734C6.38867 11.8113 6.38867 13.4417 4.54492 14.1064C6.43359 14.7532 6.38867 16.1265 6.38867 17.562L6.38867 22.8784C6.38867 23.8887 6.79688 24.5 7.52344 24.6506C7.68164 24.7046 7.85156 24.7285 8.01953 24.7214L9.79102 24.7214L9.79102 28.2659L6.86719 28.2659C3.74805 28.2659 2.0293 26.4937 2.0293 23.2063L2.0293 16.9153C2.00781 16.5923 1.86523 16.2893 1.63086 16.0662C1.39453 15.843 1.08594 15.7161 0.761719 15.7102L0 15.7102L0 12.6001L0.761719 12.6001C1.0918 12.5957 1.4082 12.4644 1.64453 12.2334C1.87891 12.0024 2.01758 11.6895 2.0293 11.3594L2.0293 4.97974C2.0293 1.74561 3.71289 0 6.86719 0L9.81836 0L9.81836 3.49121L8.04492 3.49121C7.87695 3.4917 7.70898 3.51855 7.54883 3.5708C6.82227 3.75708 6.41602 4.35938 6.41602 5.34302L6.38867 10.4734Z" fill="#FFFFFF" fill-opacity="1.000000" fill-rule="nonzero"/>
	</g>
</svg>
