<svg width="160.000000" height="32.000000" viewBox="0 0 160 32" fill="none" xmlns="http://www.w3.org/2000/svg" xmlns:xlink="http://www.w3.org/1999/xlink">
	<desc>
			Created with Pixso.
	</desc>
	<defs>
		<clipPath id="clip802_404">
			<rect id="Logo 1" width="160.000000" height="32.000000" fill="white" fill-opacity="0"/>
		</clipPath>
	</defs>
	<rect id="Logo 1" width="160.000000" height="32.000000" fill="#FFFFFF" fill-opacity="0"/>
	<g clip-path="url(#clip802_404)">
		<path id="Vector" d="M24.4473 14.083C24.002 14.5376 23.6602 15.0859 23.4492 15.6895C23.2363 16.293 23.1582 16.937 23.2188 17.5747L23.1973 17.5532C23.2598 18.3042 23.1602 19.0601 22.9043 19.7676C22.6504 20.4756 22.2461 21.1182 21.7207 21.6509C21.1973 22.1841 20.5645 22.5942 19.8672 22.853C19.1699 23.1118 18.4258 23.2129 17.6855 23.1494L17.707 23.1709C16.8223 23.0874 15.9336 23.2827 15.1621 23.731C14.3906 24.1787 13.7754 24.8574 13.3984 25.6738C13.0195 26.4907 12.9004 27.4058 13.0527 28.2939C13.207 29.1826 13.627 30.0015 14.2539 30.6392C14.8828 31.2769 15.6895 31.7021 16.5645 31.8569C17.4414 32.0117 18.3418 31.8892 19.1445 31.5049C19.9492 31.1211 20.6172 30.4941 21.0566 29.7109C21.498 28.9272 21.6895 28.0249 21.6055 27.127L21.6289 27.1484C21.5664 26.3975 21.666 25.6416 21.9199 24.9341C22.1758 24.2261 22.5801 23.5835 23.1035 23.0508C23.6289 22.5176 24.2617 22.1074 24.959 21.8486C25.6562 21.5898 26.4004 21.4888 27.1406 21.5522L27.1172 21.5308C27.8398 21.5967 28.5684 21.4766 29.2324 21.1807C29.8965 20.8853 30.4766 20.4243 30.9199 19.8403C31.3633 19.2568 31.6523 18.5688 31.7637 17.8408C31.875 17.1128 31.8027 16.3682 31.5547 15.6758C31.3066 14.9834 30.8906 14.3657 30.3457 13.8804C29.7988 13.3945 29.1426 13.0566 28.4336 12.8979C27.7246 12.7393 26.9883 12.7642 26.291 12.9717C25.5957 13.1787 24.9629 13.561 24.4492 14.083L24.4473 14.083Z" fill="#282938" fill-opacity="1.000000" fill-rule="nonzero"/>
		<path id="Vector" d="M15.7852 20.3599L15.7617 20.3384C16.3906 20.4023 17.0254 20.3242 17.6211 20.1089C18.2148 19.8936 18.7559 19.5469 19.2031 19.0933C19.6504 18.6401 19.9922 18.0913 20.2051 17.4873C20.418 16.8833 20.4941 16.2388 20.4316 15.6006L20.4551 15.6221C20.3926 14.8711 20.4922 14.1152 20.7461 13.4077C21.002 12.6997 21.4043 12.0571 21.9297 11.5239C22.4551 10.9912 23.0879 10.5811 23.7852 10.3223C24.4824 10.0635 25.2266 9.9624 25.9648 10.0254L25.9434 10.0044C26.8281 10.0884 27.7168 9.89355 28.4883 9.44629C29.2598 8.99902 29.877 8.3208 30.2559 7.50439C30.6328 6.6875 30.7539 5.77246 30.6016 4.88379C30.4492 3.99512 30.0293 3.17578 29.4004 2.5376C28.7715 1.8999 27.9648 1.47412 27.0898 1.31885C26.2148 1.16357 25.3145 1.28613 24.5098 1.67041C23.7051 2.0542 23.0371 2.68066 22.5977 3.46387C22.1562 4.24756 21.9648 5.1499 22.0469 6.04834L22.0273 6.02588C22.0898 6.77686 21.9902 7.53271 21.7344 8.24023C21.4805 8.94824 21.0762 9.59082 20.5508 10.124C20.0254 10.6567 19.3926 11.0669 18.6953 11.3257C17.998 11.5845 17.2539 11.6855 16.5156 11.6221L16.5352 11.6445C15.9082 11.5806 15.2734 11.6587 14.6777 11.874C14.082 12.0894 13.543 12.436 13.0957 12.8896C12.6484 13.3428 12.3066 13.8916 12.0938 14.4956C11.8809 15.0996 11.8027 15.7441 11.8672 16.3823L11.8457 16.3608C11.9082 17.1118 11.8086 17.8677 11.5527 18.5752C11.2969 19.2827 10.8945 19.9253 10.3691 20.4585C9.84375 20.9912 9.21094 21.4014 8.51367 21.6602C7.81836 21.9189 7.07422 22.0205 6.33398 21.9575L6.35547 21.9785C5.4707 21.8945 4.58203 22.0894 3.81055 22.5366C3.03906 22.9839 2.42188 23.6621 2.04297 24.4785C1.66602 25.2954 1.54492 26.2104 1.69727 27.0991C1.84961 27.9878 2.26953 28.8071 2.89844 29.4453C3.52539 30.083 4.33203 30.5088 5.20898 30.6641C6.08398 30.8193 6.98438 30.6968 7.78906 30.313C8.59375 29.9287 9.26172 29.3022 9.70117 28.519C10.1426 27.7354 10.334 26.833 10.25 25.9346L10.2734 25.9561C10.2109 25.2051 10.3105 24.4492 10.5645 23.7417C10.8203 23.0337 11.2246 22.3911 11.748 21.8584C12.2734 21.3252 12.9062 20.915 13.6035 20.6562C14.3008 20.3975 15.0449 20.2964 15.7852 20.3599Z" fill="#282938" fill-opacity="1.000000" fill-rule="nonzero"/>
		<path id="Vector" d="M7.91406 17.9673C8.35938 17.5127 8.70117 16.9639 8.91211 16.3604C9.125 15.7568 9.20312 15.1128 9.14062 14.4751L9.16406 14.4966C9.10156 13.7456 9.20117 12.9897 9.45703 12.2817C9.71094 11.5737 10.1152 10.9307 10.6406 10.3979C11.166 9.86475 11.7988 9.45459 12.4961 9.19629C13.1934 8.9375 13.9375 8.83643 14.6777 8.90039L14.6543 8.87891C15.5391 8.96289 16.4277 8.76807 17.1992 8.3208C17.9707 7.87354 18.5879 7.19531 18.9648 6.37891C19.3438 5.56299 19.4629 4.64795 19.3105 3.75977C19.1582 2.87109 18.7383 2.05225 18.1113 1.41455C17.4824 0.776367 16.6758 0.351074 15.8008 0.195801C14.9258 0.0405273 14.0254 0.163086 13.2207 0.546875C12.418 0.930664 11.75 1.55664 11.3086 2.33984C10.8691 3.12305 10.6758 4.0249 10.7598 4.92285L10.7383 4.90137C10.8008 5.65234 10.7012 6.4082 10.4453 7.11572C10.1914 7.82373 9.78711 8.46631 9.26172 8.99951C8.73828 9.53223 8.10547 9.94238 7.4082 10.2012C6.71094 10.46 5.9668 10.561 5.22656 10.498L5.24805 10.5195C4.52539 10.4536 3.79883 10.5742 3.13281 10.8696C2.46875 11.165 1.88867 11.626 1.44727 12.2104C1.00391 12.7939 0.714844 13.4819 0.603516 14.21C0.492188 14.938 0.564453 15.6826 0.8125 16.375C1.06055 17.0674 1.47656 17.6846 2.02148 18.1699C2.56836 18.6558 3.22461 18.9937 3.93359 19.1523C4.64258 19.311 5.37891 19.2856 6.07422 19.0786C6.77148 18.8711 7.4043 18.4888 7.91602 17.9673L7.91406 17.9673Z" fill="#282938" fill-opacity="1.000000" fill-rule="nonzero"/>
		<path id="Vector" d="M44.2852 6.07617L47.7715 6.07617L47.7715 23.3071L44.2852 23.3071L44.2852 6.07617Z" fill="#282938" fill-opacity="1.000000" fill-rule="nonzero"/>
		<path id="Vector" d="M49.748 17.4077C49.7441 16.1694 50.0996 14.9575 50.7754 13.9253C51.4492 12.8936 52.4082 12.0874 53.5332 11.6104C54.6602 11.1328 55.8984 11.0054 57.0957 11.2441C58.293 11.4824 59.3926 12.0767 60.2559 12.9502C61.1211 13.8242 61.709 14.939 61.9492 16.1528C62.1895 17.3672 62.0684 18.626 61.6035 19.7705C61.1367 20.915 60.3477 21.8936 59.334 22.582C58.3203 23.2705 57.1289 23.6382 55.9082 23.6382C55.0996 23.6475 54.2969 23.4927 53.5469 23.1836C52.7969 22.874 52.1152 22.4155 51.541 21.8354C50.9668 21.2554 50.5137 20.5654 50.2051 19.8047C49.8984 19.0444 49.7422 18.2295 49.748 17.4077ZM58.582 17.4077C58.5684 16.874 58.3984 16.3564 58.0957 15.9194C57.793 15.4829 57.3711 15.1465 56.8809 14.9526C56.3906 14.7583 55.8555 14.7153 55.3418 14.8286C54.8281 14.9419 54.3574 15.2065 53.9922 15.5889C53.625 15.9717 53.377 16.4561 53.2793 16.9805C53.1836 17.5054 53.2402 18.0474 53.4453 18.5396C53.6504 19.0312 53.9922 19.4512 54.4297 19.7461C54.8691 20.041 55.3828 20.1987 55.9082 20.1987C56.2695 20.2085 56.627 20.1421 56.9609 20.0044C57.2949 19.8667 57.5957 19.6602 57.8477 19.3979C58.0996 19.1357 58.2949 18.8232 58.4199 18.481C58.5469 18.1382 58.6016 17.7729 58.582 17.4077Z" fill="#282938" fill-opacity="1.000000" fill-rule="nonzero"/>
		<path id="Vector" d="M75.9688 11.5059L75.9688 22.7129C75.9688 26.6782 72.9238 28.3545 69.832 28.3545C68.7422 28.437 67.6523 28.2139 66.6816 27.709C65.709 27.2041 64.8926 26.4375 64.3223 25.4932L67.2969 23.7466C67.5371 24.2388 67.9199 24.645 68.3945 24.9106C68.8672 25.1763 69.4102 25.2891 69.9473 25.2329C70.291 25.2812 70.6426 25.2505 70.9727 25.1431C71.3027 25.0356 71.6055 24.8535 71.8594 24.6113C72.1113 24.3687 72.3066 24.0718 72.4297 23.7422C72.5547 23.4131 72.6035 23.0596 72.5742 22.708L72.5742 21.6289C72.166 22.1362 71.6465 22.5396 71.0566 22.8062C70.4668 23.0723 69.8242 23.1948 69.1797 23.1636C67.6465 23.1143 66.1914 22.4609 65.123 21.3423C64.0566 20.2231 63.459 18.7266 63.459 17.1685C63.459 15.6104 64.0566 14.1133 65.123 12.9946C66.1914 11.8755 67.6465 11.2222 69.1797 11.1733C69.8242 11.1421 70.4668 11.2642 71.0566 11.5308C71.6465 11.7974 72.166 12.2002 72.5742 12.7075L72.5742 11.5034L75.9688 11.5059ZM72.5762 17.1699C72.5996 16.5996 72.4531 16.0347 72.1582 15.5488C71.8633 15.0625 71.4316 14.6772 70.918 14.4424C70.4062 14.208 69.8359 14.1343 69.2812 14.2314C68.7266 14.3281 68.2148 14.5913 67.8086 14.9873C67.4023 15.3828 67.123 15.8926 67.0039 16.4512C66.8867 17.0093 66.9355 17.5908 67.1465 18.1206C67.3574 18.6504 67.7188 19.104 68.1855 19.4233C68.6504 19.7427 69.2012 19.9131 69.7637 19.9121C70.1289 19.938 70.498 19.8857 70.8438 19.7588C71.1875 19.6318 71.5039 19.4326 71.7676 19.1743C72.0332 18.916 72.2422 18.604 72.3809 18.2588C72.5195 17.9141 72.5859 17.543 72.5762 17.1699Z" fill="#282938" fill-opacity="1.000000" fill-rule="nonzero"/>
		<path id="Vector" d="M77.9434 17.4077C77.9395 16.1694 78.2949 14.9575 78.9707 13.9253C79.6445 12.8936 80.6035 12.0874 81.7305 11.6104C82.8555 11.1328 84.0938 11.0054 85.291 11.2441C86.4883 11.4824 87.5879 12.0767 88.4512 12.9502C89.3164 13.8242 89.9043 14.939 90.1445 16.1528C90.3848 17.3672 90.2637 18.626 89.7988 19.7705C89.332 20.915 88.543 21.8936 87.5293 22.582C86.5156 23.2705 85.3242 23.6382 84.1035 23.6382C83.2949 23.6475 82.4922 23.4927 81.7422 23.1836C80.9922 22.874 80.3105 22.4155 79.7363 21.8354C79.1621 21.2554 78.709 20.5654 78.4004 19.8047C78.0938 19.0444 77.9375 18.2295 77.9434 17.4077ZM86.7773 17.4077C86.7637 16.874 86.5938 16.3564 86.291 15.9194C85.9883 15.4829 85.5664 15.1465 85.0762 14.9526C84.5859 14.7583 84.0508 14.7153 83.5371 14.8286C83.0234 14.9419 82.5527 15.2065 82.1875 15.5889C81.8203 15.9717 81.5723 16.4561 81.4746 16.9805C81.3789 17.5054 81.4355 18.0474 81.6406 18.5396C81.8457 19.0312 82.1875 19.4512 82.625 19.7461C83.0645 20.041 83.5781 20.1987 84.1035 20.1987C84.4648 20.2085 84.8223 20.1421 85.1562 20.0044C85.4902 19.8667 85.793 19.6602 86.043 19.3979C86.2949 19.1357 86.4902 18.8232 86.6152 18.481C86.7422 18.1382 86.7969 17.7729 86.7773 17.4077Z" fill="#282938" fill-opacity="1.000000" fill-rule="nonzero"/>
		<path id="Vector" d="M91.8906 8.34229C91.8906 7.92188 92.0137 7.51123 92.2441 7.16211C92.4727 6.8125 92.8008 6.54053 93.1816 6.37939C93.5645 6.21875 93.9844 6.17676 94.3906 6.25879C94.7969 6.34033 95.1699 6.54297 95.4629 6.83984C95.7539 7.13721 95.9551 7.51562 96.0352 7.92773C96.1152 8.33984 96.0742 8.76709 95.916 9.15527C95.7578 9.54346 95.4902 9.87549 95.1445 10.1089C94.8008 10.3423 94.3965 10.4668 93.9824 10.4668C93.4297 10.4614 92.9004 10.2358 92.5098 9.83838C92.1191 9.44141 91.8965 8.90381 91.8906 8.34229ZM92.2422 11.5054L95.7305 11.5054L95.7305 23.3081L92.2383 23.3081L92.2422 11.5054Z" fill="#282938" fill-opacity="1.000000" fill-rule="nonzero"/>
		<path id="Vector" d="M110.789 17.4072C110.83 18.1875 110.717 18.9678 110.459 19.7036C110.203 20.4395 109.803 21.1167 109.287 21.6958C108.771 22.2744 108.146 22.7441 107.451 23.0776C106.756 23.4111 106.002 23.6011 105.232 23.6377C104.588 23.6733 103.941 23.563 103.342 23.314C102.744 23.0645 102.205 22.6836 101.771 22.1978L101.771 28.0288L98.2832 28.0288L98.2832 11.5059L101.771 11.5059L101.771 12.6143C102.207 12.1289 102.744 11.748 103.342 11.499C103.941 11.2505 104.588 11.1396 105.232 11.1753C106.002 11.2119 106.756 11.4023 107.451 11.7354C108.146 12.0688 108.771 12.5386 109.287 13.1177C109.805 13.6968 110.203 14.374 110.461 15.1104C110.719 15.8462 110.83 16.627 110.789 17.4072ZM107.303 17.4072C107.289 16.855 107.115 16.3188 106.803 15.8662C106.49 15.4136 106.053 15.0645 105.547 14.8628C105.041 14.6606 104.486 14.6152 103.955 14.7314C103.422 14.8477 102.936 15.1211 102.557 15.5166C102.176 15.9121 101.92 16.4126 101.818 16.9556C101.717 17.4985 101.775 18.0596 101.988 18.5688C102.199 19.0781 102.555 19.5127 103.008 19.8179C103.461 20.1235 103.992 20.2866 104.537 20.2866C104.91 20.3032 105.283 20.2397 105.631 20.1001C105.979 19.9604 106.293 19.7476 106.555 19.4756C106.816 19.2041 107.018 18.8789 107.146 18.5225C107.275 18.166 107.328 17.7861 107.303 17.4072Z" fill="#282938" fill-opacity="1.000000" fill-rule="nonzero"/>
		<path id="Vector" d="M121.549 19.7666C121.549 22.4814 119.225 23.6377 116.715 23.6377C115.701 23.731 114.682 23.5132 113.791 23.0122C112.9 22.5117 112.178 21.751 111.717 20.8286L114.736 19.082C114.859 19.5083 115.123 19.8794 115.48 20.1328C115.84 20.3862 116.273 20.5068 116.711 20.4746C117.547 20.4746 117.965 20.2148 117.965 19.7441C117.965 18.4443 112.246 19.1299 112.246 15.0464C112.246 12.4727 114.385 11.1753 116.803 11.1753C117.713 11.1465 118.611 11.3652 119.408 11.8091C120.207 12.2534 120.871 12.9067 121.336 13.7007L118.359 15.3291C118.229 15.02 118.012 14.7568 117.736 14.5723C117.459 14.3872 117.135 14.2896 116.803 14.2905C116.199 14.2905 115.826 14.5293 115.826 14.9512C115.83 16.2974 121.549 15.3994 121.549 19.7666Z" fill="#282938" fill-opacity="1.000000" fill-rule="nonzero"/>
		<path id="Vector" d="M134.289 11.5054L134.289 23.3081L130.801 23.3081L130.801 22.1982C130.4 22.688 129.889 23.0742 129.311 23.3242C128.734 23.5747 128.105 23.6826 127.479 23.6387C125.131 23.6387 123.135 21.9395 123.135 18.7505L123.135 11.5054L126.623 11.5054L126.623 18.2319C126.594 18.5132 126.625 18.7974 126.715 19.0645C126.805 19.332 126.951 19.5767 127.143 19.7808C127.336 19.9849 127.568 20.144 127.828 20.2471C128.088 20.3506 128.367 20.395 128.645 20.3779C129.922 20.3779 130.805 19.623 130.805 17.9468L130.805 11.5088L134.289 11.5054Z" fill="#282938" fill-opacity="1.000000" fill-rule="nonzero"/>
		<path id="Vector" d="M154.283 16.061L154.283 23.3076L150.795 23.3076L150.795 16.3677C150.795 15.1875 150.238 14.4326 149.123 14.4326C147.961 14.4326 147.309 15.2588 147.309 16.6514L147.309 23.3076L143.822 23.3076L143.822 16.3677C143.822 15.1875 143.264 14.4326 142.148 14.4326C140.984 14.4326 140.336 15.2588 140.336 16.6514L140.336 23.3076L136.848 23.3076L136.848 11.5044L140.336 11.5044L140.336 12.5894C140.697 12.1084 141.172 11.7266 141.715 11.4795C142.26 11.2319 142.855 11.1274 143.451 11.1743C144.047 11.1445 144.641 11.2725 145.174 11.5454C145.709 11.8184 146.162 12.2271 146.494 12.7314C146.881 12.2036 147.393 11.7837 147.982 11.5117C148.572 11.2393 149.221 11.1235 149.865 11.1743C152.533 11.1758 154.283 13.1104 154.283 16.061Z" fill="#282938" fill-opacity="1.000000" fill-rule="nonzero"/>
		<path id="Vector" d="M157.234 11.4326C158.664 11.4326 159.822 10.2563 159.822 8.80469C159.822 7.35352 158.664 6.17725 157.234 6.17725C155.805 6.17725 154.646 7.35352 154.646 8.80469C154.646 10.2563 155.805 11.4326 157.234 11.4326Z" fill="#282938" fill-opacity="1.000000" fill-rule="nonzero"/>
	</g>
</svg>
